<svg width="22" height="23" viewBox="0 0 22 23" fill="none" xmlns="http://www.w3.org/2000/svg">
<path d="M21.5068 18.1776L18.1092 14.6252C17.4325 13.9206 16.3118 13.942 15.6115 14.6744L13.8998 16.4635C13.7917 16.4012 13.6797 16.3361 13.562 16.267C12.4811 15.6409 11.0017 14.7827 9.44491 13.1539C7.88351 11.5218 7.06185 9.97271 6.46109 8.84193C6.3977 8.72213 6.33696 8.60663 6.27698 8.49694L7.42578 7.2977L7.99058 6.70651C8.69195 5.97305 8.7113 4.80176 8.03615 4.09507L4.63859 0.542286C3.96344 -0.16342 2.84226 -0.142011 2.14088 0.591447L1.18333 1.59827L1.2095 1.62543C0.888423 2.05374 0.62012 2.54773 0.420458 3.08045C0.236406 3.58753 0.121817 4.07141 0.0694204 4.55629C-0.379204 8.44454 1.32036 11.9981 5.93277 16.8202C12.3085 23.4853 17.4465 22.9818 17.6682 22.9572C18.1509 22.8969 18.6136 22.7763 19.0838 22.5854C19.5889 22.3791 20.0611 22.099 20.4705 21.7641L20.4915 21.7835L21.4615 20.7904C22.1614 20.0571 22.1816 18.8854 21.5068 18.1776Z" fill="white"/>
</svg>
