<svg width="1440" height="8647" viewBox="0 0 1440 8647" fill="none" xmlns="http://www.w3.org/2000/svg">
<path opacity="0.03" fill-rule="evenodd" clip-rule="evenodd" d="M-163.319 1870.79L-137.85 1921.02L-137.874 1921.07L-163.319 1971.62V1971.26V1870.79ZM-163.318 1987.29L-131.948 1924.94H-33.4888L15.8961 2022.57L15.8063 2022.74L15.8961 2022.92L-33.4888 2120.54H-131.948L-163.318 2058.19V1987.29ZM-137.849 2125.17L-163.319 2074.94V2175.41L-137.849 2125.17ZM-163.318 2191.08L-131.948 2128.73H-33.4888L15.8961 2226.71L-33.4888 2324.69H-131.948L-163.318 2262.34V2191.44V2191.08ZM-27.2722 2125.17L22.1127 2027.19H120.572L169.957 2125.17L120.572 2223.15H22.1127L-27.2722 2125.17ZM-27.2722 2328.25L22.1127 2230.63H120.572L169.957 2328.25L169.867 2328.43L169.957 2328.61L120.572 2426.58H22.1127L-27.2722 2328.61L-27.1824 2328.43L-27.2722 2328.25ZM-163.319 2278.02L-137.849 2328.25L-137.9 2328.35L-163.319 2378.84V2378.49V2278.02ZM-8.29858 2378.51L17.1704 2428.75L17.1589 2428.77L-8.29858 2479.34V2478.99V2378.51ZM-8.29773 2495.02L23.0725 2432.67H121.532L170.917 2530.29L170.827 2530.47L170.917 2530.65L121.532 2628.27H23.0725L-8.29773 2565.92V2495.02ZM17.1704 2632.9L-8.29858 2582.66V2683.13L17.1704 2632.9ZM-8.29773 2698.81L23.0725 2636.46H121.532L170.917 2734.44L121.532 2832.41H23.0725L-8.29773 2770.06V2699.16V2698.81ZM127.748 2632.9L177.133 2534.92H275.592L324.977 2632.9L275.592 2730.87H177.133L127.748 2632.9ZM-8.29858 2785.74L17.1704 2835.98L-8.29858 2886.57V2886.21V2785.74ZM1130.11 2230.57L1080.73 2328.55L1130.11 2426.52H1228.57L1277.96 2328.55L1228.57 2230.57H1130.11ZM514.751 2231.1L465.366 2328.72L514.751 2426.69H613.21L662.595 2329.07L662.505 2328.9L662.595 2328.72L613.21 2231.1H514.751ZM1382.32 2332.11L1431.7 2430.09L1382.32 2528.07H1283.86L1234.47 2430.09L1283.86 2332.11H1382.32ZM1283.86 2535.55L1234.47 2633.17L1283.86 2731.14H1382.32L1431.7 2633.52L1431.61 2633.35L1431.7 2633.17L1382.32 2535.55H1283.86ZM669.362 2332.11L619.977 2430.09L669.362 2528.07H767.821L817.206 2430.09L767.821 2332.11H669.362ZM669.362 2535.55L619.977 2633.17L669.362 2731.14H767.821L817.206 2633.52L817.116 2633.35L817.206 2633.17L767.821 2535.55H669.362ZM1130.11 2434.01L1080.73 2531.63L1130.11 2629.6H1228.57L1277.96 2531.63L1228.57 2434.01H1130.11ZM976.057 2332.11L926.672 2430.09L976.057 2528.07H1074.52L1123.9 2430.09L1074.52 2332.11H976.057ZM976.057 2535.55L926.672 2633.17L926.762 2633.35L926.672 2633.52L976.057 2731.5H1074.52L1123.9 2633.52L1123.81 2633.35L1123.9 2633.17L1074.52 2535.55H976.057ZM822.315 2230.57L772.93 2328.55L822.315 2426.52H920.774L970.159 2328.55L920.774 2230.57H822.315ZM1130.11 2637.8L1080.73 2735.77L1130.11 2833.75H1228.57L1277.96 2735.77L1228.57 2637.8H1130.11ZM823.55 2434.92L774.165 2532.9L823.55 2630.87H922.009L971.394 2532.9L922.009 2434.92H823.55ZM823.549 2638.35L774.164 2735.97L774.254 2736.15L774.164 2736.33L823.549 2834.31H922.008L971.393 2736.33L971.303 2736.15L971.393 2735.97L922.008 2638.35H823.549Z" fill="url(#paint0_linear)"/>
<path opacity="0.03" fill-rule="evenodd" clip-rule="evenodd" d="M852.257 2018.4C851.89 2019.11 851.158 2019.55 850.36 2019.55H753.61C753.609 2019.55 753.608 2019.55 753.608 2019.55L753.608 2019.55C753.608 2019.55 753.607 2019.55 753.607 2019.55C753.606 2019.55 753.606 2019.55 753.606 2019.55L753.393 2019.14L709.44 1934.85C708.988 1933.98 708.987 1932.95 709.438 1932.08L755.609 1843.24C755.65 1843.16 755.733 1843.11 755.823 1843.11H755.966C755.967 1843.11 755.968 1843.11 755.968 1843.11C755.969 1843.11 755.969 1843.11 755.97 1843.11H847.768C848.887 1843.11 849.913 1843.73 850.43 1844.72L895.827 1932.08C896.279 1932.95 896.278 1933.98 895.825 1934.85L852.257 2018.4ZM1441.27 1650.17C1440.82 1651.04 1440.82 1652.07 1441.27 1652.94L1486.67 1739.97C1487.18 1740.96 1488.21 1741.58 1489.33 1741.58H1579.31C1580.43 1741.58 1581.45 1740.96 1581.97 1739.97L1615.34 1675.86C1615.57 1675.43 1615.68 1674.96 1615.68 1674.48V1628.3C1615.68 1627.82 1615.57 1627.34 1615.34 1626.92L1581.97 1562.81C1581.45 1561.82 1580.43 1561.2 1579.31 1561.2H1489.33C1488.21 1561.2 1487.18 1561.82 1486.67 1562.81L1441.27 1650.17ZM1294.78 1743.81C1294.33 1744.68 1294.33 1745.71 1294.78 1746.58L1340.18 1833.94C1340.7 1834.93 1341.72 1835.55 1342.84 1835.55H1432.82C1433.94 1835.55 1434.97 1834.93 1435.48 1833.94L1480.88 1746.58C1481.33 1745.71 1481.33 1744.68 1480.88 1743.81L1435.48 1656.45C1434.97 1655.46 1433.94 1654.84 1432.82 1654.84H1342.84C1341.72 1654.84 1340.7 1655.46 1340.18 1656.45L1294.78 1743.81ZM1294.78 1556.52C1294.33 1557.39 1294.33 1558.43 1294.79 1559.29L1340.18 1646.33C1340.7 1647.32 1341.72 1647.94 1342.84 1647.94H1432.82C1433.94 1647.94 1434.97 1647.32 1435.48 1646.33L1481.56 1557.99C1481.58 1557.94 1481.58 1557.88 1481.56 1557.83C1481.53 1557.78 1481.53 1557.72 1481.56 1557.66C1481.58 1557.61 1481.58 1557.55 1481.56 1557.5L1435.48 1469.17C1434.97 1468.17 1433.94 1467.55 1432.82 1467.55H1342.84C1341.72 1467.55 1340.7 1468.18 1340.18 1469.17L1294.78 1556.52ZM710.485 1743.81C710.034 1744.68 710.034 1745.71 710.485 1746.58L755.884 1833.94C756.4 1834.93 757.426 1835.55 758.546 1835.55H848.523C849.642 1835.55 850.669 1834.93 851.185 1833.94L896.584 1746.58C897.034 1745.71 897.034 1744.68 896.584 1743.81L851.185 1656.45C850.669 1655.46 849.642 1654.84 848.523 1654.84H758.546C757.426 1654.84 756.4 1655.46 755.884 1656.45L710.485 1743.81ZM710.486 1556.52C710.035 1557.39 710.036 1558.43 710.488 1559.29L755.883 1646.33C756.4 1647.32 757.425 1647.94 758.543 1647.94H848.526C849.644 1647.94 850.669 1647.32 851.186 1646.33L897.26 1557.99C897.287 1557.94 897.287 1557.88 897.26 1557.83C897.233 1557.78 897.233 1557.72 897.26 1557.66C897.287 1557.61 897.287 1557.55 897.26 1557.5L851.186 1469.17C850.669 1468.17 849.644 1467.55 848.526 1467.55H758.546C757.426 1467.55 756.4 1468.18 755.884 1469.17L710.486 1556.52ZM563.474 1837.3C563.023 1838.17 563.023 1839.2 563.476 1840.07L608.871 1927.1C609.388 1928.09 610.413 1928.71 611.531 1928.71H701.514C702.632 1928.71 703.657 1928.09 704.174 1927.1L750.248 1838.77C750.275 1838.71 750.275 1838.65 750.248 1838.6C750.221 1838.55 750.221 1838.49 750.248 1838.44C750.275 1838.39 750.275 1838.32 750.248 1838.27L704.174 1749.94C703.657 1748.95 702.632 1748.33 701.514 1748.33H611.534C610.414 1748.33 609.388 1748.95 608.872 1749.94L563.474 1837.3ZM1148.59 1837.46C1148.14 1838.32 1148.14 1839.35 1148.59 1840.22L1193.99 1927.58C1194.51 1928.57 1195.53 1929.2 1196.65 1929.2H1286.63C1287.75 1929.2 1288.78 1928.57 1289.29 1927.58L1334.69 1840.22C1335.14 1839.35 1335.14 1838.32 1334.69 1837.46L1289.29 1750.1C1288.78 1749.11 1287.75 1748.48 1286.63 1748.48H1196.65C1195.53 1748.48 1194.51 1749.11 1193.99 1750.1L1148.59 1837.46ZM1148.59 1650.17C1148.14 1651.04 1148.14 1652.07 1148.6 1652.94L1193.99 1739.97C1194.51 1740.96 1195.53 1741.58 1196.65 1741.58H1286.63C1287.75 1741.58 1288.78 1740.96 1289.29 1739.97L1334.69 1652.94C1335.14 1652.07 1335.14 1651.04 1334.69 1650.17L1289.29 1562.81C1288.78 1561.82 1287.75 1561.2 1286.63 1561.2H1196.65C1195.53 1561.2 1194.51 1561.82 1193.99 1562.81L1148.59 1650.17ZM1002.11 1743.81C1001.66 1744.68 1001.66 1745.71 1002.11 1746.58L1047.51 1833.94C1048.02 1834.93 1049.05 1835.55 1050.17 1835.55H1140.15C1141.27 1835.55 1142.29 1834.93 1142.81 1833.94L1188.21 1746.58C1188.66 1745.71 1188.66 1744.68 1188.21 1743.81L1142.81 1656.45C1142.29 1655.46 1141.27 1654.84 1140.15 1654.84H1050.17C1049.05 1654.84 1048.02 1655.46 1047.51 1656.45L1002.11 1743.81ZM1001.43 1557.83C1001.41 1557.88 1001.41 1557.94 1001.43 1557.99L1047.51 1646.33C1048.02 1647.32 1049.05 1647.94 1050.17 1647.94H1140.15C1141.27 1647.94 1142.29 1647.32 1142.81 1646.33L1188.88 1557.99C1188.91 1557.94 1188.91 1557.88 1188.88 1557.83C1188.86 1557.78 1188.86 1557.72 1188.88 1557.66C1188.91 1557.61 1188.91 1557.55 1188.88 1557.5L1142.81 1468.84C1142.29 1467.85 1141.27 1467.22 1140.15 1467.22H1050.17C1049.05 1467.22 1048.02 1467.85 1047.51 1468.84L1001.43 1557.5C1001.41 1557.55 1001.41 1557.61 1001.43 1557.66C1001.46 1557.72 1001.46 1557.78 1001.43 1557.83ZM855.922 1837.46C855.471 1838.32 855.471 1839.35 855.922 1840.22L901.32 1927.58C901.837 1928.57 902.863 1929.2 903.982 1929.2H993.959C995.079 1929.2 996.105 1928.57 996.621 1927.58L1042.02 1840.22C1042.47 1839.35 1042.47 1838.32 1042.02 1837.46L996.621 1750.1C996.105 1749.11 995.079 1748.48 993.959 1748.48H903.982C902.863 1748.48 901.837 1749.11 901.32 1750.1L855.922 1837.46ZM1441.27 1461.9C1440.82 1462.77 1440.82 1463.8 1441.27 1464.67L1486.67 1552.02C1487.18 1553.02 1488.21 1553.64 1489.33 1553.64H1579.31C1580.43 1553.64 1581.45 1553.02 1581.97 1552.02L1615.34 1487.92C1615.57 1487.49 1615.68 1487.02 1615.68 1486.53V1440.36C1615.68 1439.88 1615.57 1439.4 1615.35 1438.98L1581.97 1374.54C1581.45 1373.55 1580.43 1372.92 1579.31 1372.92H1489.33C1488.21 1372.92 1487.18 1373.55 1486.67 1374.54L1441.27 1461.9ZM1294.78 1368.26C1294.33 1369.12 1294.33 1370.16 1294.78 1371.02L1340.18 1458.38C1340.7 1459.37 1341.72 1460 1342.84 1460H1432.82C1433.94 1460 1434.97 1459.37 1435.48 1458.38L1480.88 1371.02C1481.33 1370.16 1481.33 1369.12 1480.88 1368.26L1435.48 1280.9C1434.97 1279.91 1433.94 1279.28 1432.82 1279.28H1342.84C1341.72 1279.28 1340.7 1279.91 1340.18 1280.9L1294.78 1368.26ZM1148.59 1461.9C1148.14 1462.77 1148.14 1463.8 1148.59 1464.67L1193.99 1552.02C1194.51 1553.02 1195.53 1553.64 1196.65 1553.64H1286.63C1287.75 1553.64 1288.78 1553.02 1289.29 1552.02L1334.69 1464.67C1335.14 1463.8 1335.14 1462.77 1334.69 1461.9L1289.29 1374.54C1288.78 1373.55 1287.75 1372.92 1286.63 1372.92H1196.65C1195.53 1372.92 1194.51 1373.55 1193.99 1374.54L1148.59 1461.9ZM1002.11 1368.26C1001.66 1369.12 1001.66 1370.16 1002.11 1371.02L1047.51 1458.38C1048.02 1459.37 1049.05 1460 1050.17 1460H1140.15C1141.27 1460 1142.29 1459.37 1142.81 1458.38L1188.21 1371.02C1188.66 1370.16 1188.66 1369.12 1188.21 1368.26L1142.81 1280.9C1142.29 1279.91 1141.27 1279.28 1140.15 1279.28H1050.17C1049.05 1279.28 1048.02 1279.91 1047.51 1280.9L1002.11 1368.26ZM857.096 1649C856.645 1649.87 856.645 1650.9 857.096 1651.77L902.495 1739.12C903.011 1740.12 904.037 1740.74 905.157 1740.74H995.134C996.253 1740.74 997.279 1740.12 997.796 1739.12L1043.19 1651.77C1043.65 1650.9 1043.65 1649.87 1043.19 1649L997.796 1561.64C997.279 1560.65 996.253 1560.03 995.134 1560.03H905.157C904.037 1560.03 903.011 1560.65 902.495 1561.64L857.096 1649ZM856.42 1463.02C856.393 1463.07 856.393 1463.13 856.42 1463.18L902.494 1551.51C903.011 1552.5 904.036 1553.13 905.154 1553.13H995.137C996.255 1553.13 997.28 1552.5 997.797 1551.51L1043.87 1463.18C1043.9 1463.13 1043.9 1463.07 1043.87 1463.02C1043.84 1462.96 1043.84 1462.9 1043.87 1462.85C1043.9 1462.8 1043.9 1462.74 1043.87 1462.69L997.796 1374.03C997.279 1373.04 996.253 1372.41 995.134 1372.41H905.157C904.037 1372.41 903.011 1373.04 902.495 1374.03L856.42 1462.69C856.393 1462.74 856.393 1462.8 856.42 1462.85C856.446 1462.9 856.446 1462.96 856.42 1463.02ZM-10.3431 1651.11C-10.3431 1654.25 -6.13745 1655.28 -4.68445 1652.5L13.1504 1618.39C13.604 1617.52 13.6056 1616.48 13.1544 1615.61L-10.1917 1570.64C-10.2303 1570.56 -10.3431 1570.59 -10.3431 1570.67V1651.11ZM-10.342 1555.15C-10.342 1555.63 -10.2264 1556.11 -10.005 1556.54L18.647 1611.77C19.1628 1612.76 20.1897 1613.39 21.3099 1613.39H111.289C112.406 1613.39 113.432 1612.76 113.948 1611.77L160.023 1523.44C160.049 1523.39 160.049 1523.33 160.023 1523.28C159.996 1523.22 159.996 1523.16 160.023 1523.11C160.049 1523.06 160.049 1523 160.023 1522.95L113.948 1434.61C113.432 1433.62 112.406 1433 111.289 1433H21.3099C20.1897 1433 19.1628 1433.62 18.647 1434.62L-10.005 1489.85C-10.2264 1490.28 -10.342 1490.75 -10.342 1491.23V1555.15ZM13.1481 1427.34C13.6031 1428.21 13.6031 1429.25 13.1481 1430.12L-4.68433 1464.23C-6.13733 1467.01 -10.343 1465.98 -10.343 1462.84V1394.62C-10.343 1391.48 -6.13733 1390.45 -4.68433 1393.23L13.1481 1427.34ZM-10.342 1367.62C-10.342 1367.83 -10.2902 1368.05 -10.1908 1368.24L18.647 1423.83C19.1628 1424.82 20.1897 1425.45 21.3099 1425.45H111.286C112.405 1425.45 113.431 1424.82 113.948 1423.83L159.346 1336.47C159.797 1335.6 159.797 1334.57 159.346 1333.7L113.948 1246.35C113.431 1245.35 112.405 1244.73 111.286 1244.73H21.3099C20.1897 1244.73 19.1628 1245.36 18.647 1246.35L-10.005 1301.58C-10.2264 1302.01 -10.342 1302.48 -10.342 1302.96V1367.62ZM119.737 1427.35C119.286 1428.21 119.286 1429.25 119.737 1430.11L165.136 1517.47C165.652 1518.46 166.678 1519.09 167.798 1519.09H257.775C258.894 1519.09 259.921 1518.46 260.437 1517.47L305.836 1430.11C306.286 1429.25 306.286 1428.21 305.836 1427.35L260.437 1339.99C259.921 1339 258.894 1338.37 257.775 1338.37H167.798C166.678 1338.37 165.652 1339 165.136 1339.99L119.737 1427.35ZM119.061 1241.36C119.034 1241.41 119.034 1241.48 119.061 1241.53L165.135 1329.86C165.652 1330.85 166.677 1331.47 167.795 1331.47H257.778C258.896 1331.47 259.921 1330.85 260.438 1329.86L306.512 1241.53C306.539 1241.48 306.539 1241.41 306.512 1241.36C306.485 1241.31 306.485 1241.25 306.512 1241.2C306.539 1241.15 306.539 1241.09 306.512 1241.03L260.437 1152.38C259.921 1151.38 258.894 1150.76 257.775 1150.76H167.798C166.678 1150.76 165.652 1151.38 165.136 1152.38L119.061 1241.03C119.034 1241.09 119.034 1241.15 119.061 1241.2C119.087 1241.25 119.087 1241.31 119.061 1241.36ZM-10.343 1275.56C-10.343 1278.69 -6.13733 1279.73 -4.68433 1276.95L13.8428 1241.5C13.8627 1241.47 13.8628 1241.42 13.843 1241.38L-10.192 1195.08C-10.2306 1195 -10.343 1195.03 -10.343 1195.12V1275.56ZM1049.07 1264.51C1047.95 1264.51 1046.93 1263.88 1046.41 1262.89L1001.01 1175.53C1000.56 1174.67 1000.56 1173.63 1001.01 1172.77L1046.41 1085.41C1046.93 1084.42 1047.95 1083.79 1049.07 1083.79H1139.05C1140.17 1083.79 1141.19 1084.42 1141.71 1085.41L1187.11 1172.77C1187.56 1173.63 1187.56 1174.67 1187.11 1175.53L1141.71 1262.89C1141.19 1263.88 1140.17 1264.51 1139.05 1264.51H1049.07ZM463.947 1264.02C462.829 1264.02 461.804 1263.4 461.287 1262.41L415.893 1175.38C415.44 1174.51 415.439 1173.48 415.891 1172.61L461.288 1085.25C461.805 1084.26 462.831 1083.64 463.95 1083.64H553.93C555.048 1083.64 556.073 1084.26 556.59 1085.25L602.664 1173.58C602.691 1173.64 602.691 1173.7 602.664 1173.75C602.638 1173.8 602.638 1173.86 602.664 1173.91C602.691 1173.96 602.691 1174.03 602.664 1174.08L556.59 1262.41C556.073 1263.4 555.048 1264.02 553.93 1264.02H463.947ZM1285.24 1170.86C1286.36 1170.86 1287.38 1170.24 1287.9 1169.25L1333.3 1081.89C1333.75 1081.02 1333.75 1079.99 1333.3 1079.12L1287.9 991.767C1287.38 990.774 1286.36 990.15 1285.24 990.15H1195.26C1194.14 990.15 1193.11 990.774 1192.6 991.767L1147.2 1079.12C1146.75 1079.99 1146.75 1081.02 1147.2 1081.89L1192.6 1169.25C1193.11 1170.24 1194.14 1170.86 1195.26 1170.86H1285.24ZM1195.26 983.25C1194.14 983.25 1193.11 982.628 1192.6 981.637L1147.2 894.606C1146.75 893.738 1146.75 892.704 1147.2 891.835L1192.6 804.481C1193.11 803.488 1194.14 802.865 1195.26 802.865H1285.24C1286.36 802.865 1287.38 803.486 1287.9 804.477L1333.97 892.811C1334 892.862 1334 892.923 1333.97 892.975C1333.95 893.026 1333.95 893.088 1333.97 893.139C1334 893.191 1334 893.252 1333.97 893.304L1287.9 981.637C1287.38 982.628 1286.36 983.25 1285.24 983.25H1195.26ZM610.962 1170.86C609.842 1170.86 608.816 1170.24 608.3 1169.25L562.901 1081.89C562.45 1081.02 562.45 1079.99 562.901 1079.12L608.3 991.767C608.816 990.774 609.842 990.15 610.962 990.15H700.939C702.058 990.15 703.085 990.774 703.601 991.767L749 1079.12C749.451 1079.99 749.451 1081.02 749 1081.89L703.601 1169.25C703.085 1170.24 702.058 1170.86 700.939 1170.86H610.962ZM610.959 983.25C609.841 983.25 608.816 982.628 608.299 981.637L562.904 894.606C562.452 893.738 562.451 892.704 562.902 891.835L608.3 804.481C608.816 803.488 609.842 802.865 610.962 802.865H700.942C702.06 802.865 703.085 803.486 703.602 804.477L749.676 892.811C749.703 892.862 749.703 892.923 749.676 892.975C749.649 893.026 749.649 893.088 749.676 893.139C749.703 893.191 749.703 893.252 749.676 893.304L703.602 981.637C703.085 982.628 702.06 983.25 700.942 983.25H610.959ZM1049.07 1076.89C1047.95 1076.89 1046.93 1076.27 1046.41 1075.28L1001.01 988.25C1000.56 987.382 1000.56 986.348 1001.01 985.479L1046.41 898.124C1046.93 897.131 1047.95 896.508 1049.07 896.508H1139.05C1140.17 896.508 1141.2 897.131 1141.71 898.124L1187.11 985.479C1187.56 986.348 1187.56 987.382 1187.11 988.25L1141.71 1075.28C1141.2 1076.27 1140.17 1076.89 1139.05 1076.89H1049.07ZM902.586 1170.86C901.467 1170.86 900.441 1170.24 899.924 1169.25L854.525 1081.89C854.075 1081.02 854.075 1079.99 854.525 1079.12L899.924 991.767C900.441 990.774 901.467 990.15 902.586 990.15H992.563C993.683 990.15 994.709 990.774 995.225 991.767L1040.62 1079.12C1041.08 1079.99 1041.08 1081.02 1040.62 1081.89L995.225 1169.25C994.709 1170.24 993.683 1170.86 992.563 1170.86H902.586ZM902.583 983.25C901.465 983.25 900.44 982.628 899.923 981.637L853.849 893.304C853.823 893.252 853.823 893.191 853.849 893.139C853.876 893.088 853.876 893.026 853.849 892.975C853.823 892.923 853.822 892.862 853.849 892.811L899.924 804.152C900.441 803.159 901.467 802.536 902.586 802.536H992.563C993.683 802.536 994.709 803.159 995.225 804.152L1041.3 892.811C1041.33 892.862 1041.33 892.923 1041.3 892.975C1041.27 893.026 1041.27 893.088 1041.3 893.139C1041.33 893.191 1041.33 893.252 1041.3 893.304L995.226 981.637C994.709 982.628 993.684 983.25 992.566 983.25H902.583ZM756.399 1264.51C755.28 1264.51 754.254 1263.88 753.737 1262.89L708.339 1175.53C707.888 1174.67 707.888 1173.63 708.339 1172.77L753.737 1085.41C754.254 1084.42 755.28 1083.79 756.399 1083.79H846.376C847.496 1083.79 848.522 1084.42 849.038 1085.41L894.437 1172.77C894.888 1173.63 894.888 1174.67 894.437 1175.53L849.038 1262.89C848.522 1263.88 847.496 1264.51 846.376 1264.51H756.399ZM1049.07 888.95C1047.95 888.95 1046.93 888.327 1046.41 887.333L1001.01 799.977C1000.56 799.109 1000.56 798.077 1001.01 797.21L1046.41 709.853C1046.93 708.86 1047.95 708.237 1049.07 708.237H1139.05C1140.17 708.237 1141.2 708.86 1141.71 709.853L1187.11 797.21C1187.56 798.077 1187.56 799.109 1187.11 799.977L1141.71 887.333C1141.2 888.327 1140.17 888.95 1139.05 888.95H1049.07ZM757.573 1076.05C756.454 1076.05 755.427 1075.43 754.911 1074.43L709.512 987.078C709.062 986.211 709.062 985.179 709.512 984.312L754.911 896.955C755.427 895.962 756.454 895.338 757.573 895.338H847.55C848.67 895.338 849.696 895.962 850.212 896.955L895.611 984.312C896.062 985.179 896.062 986.211 895.611 987.078L850.212 1074.43C849.696 1075.43 848.67 1076.05 847.55 1076.05H757.573ZM757.57 888.438C756.452 888.438 755.427 887.816 754.91 886.825L708.836 798.491C708.809 798.44 708.809 798.379 708.836 798.327C708.862 798.276 708.862 798.214 708.836 798.163C708.809 798.111 708.809 798.05 708.836 797.999L754.911 709.341C755.427 708.347 756.453 707.724 757.573 707.724H847.55C848.669 707.724 849.695 708.347 850.212 709.341L896.287 797.999C896.314 798.05 896.314 798.111 896.287 798.163C896.26 798.214 896.26 798.276 896.287 798.327C896.314 798.379 896.314 798.44 896.287 798.491L850.213 886.825C849.696 887.816 848.671 888.438 847.553 888.438H757.57Z" fill="url(#paint1_linear)"/>
<path opacity="0.04" fill-rule="evenodd" clip-rule="evenodd" d="M-60.4146 927.014L-37.6296 883.426V883.425L-60.4146 839.528V839.838V927.014ZM-60.414 825.926L-32.3498 880.025H55.7332L99.9136 795.321L99.8332 795.167L99.9136 795.012L55.7332 710.308H-32.3498L-60.414 764.407V825.926ZM-37.6294 706.29L-60.4144 749.879V662.702L-37.6294 706.29ZM-60.414 649.102L-32.3498 703.201H55.7332L99.9136 618.188L55.7332 533.176H-32.3498L-60.414 587.275V648.793V649.102ZM61.2946 706.292L105.475 791.304H193.558L237.738 706.292L193.558 621.279H105.475L61.2946 706.292ZM-60.4144 573.671L-37.6294 530.083L-37.6497 530.044L-60.4144 486.187V486.495V573.671Z" fill="url(#paint2_linear)"/>
<path opacity="0.04" fill-rule="evenodd" clip-rule="evenodd" d="M537.642 0.731641L537.893 0.269531H634.277L634.279 0.269553L634.535 0.742192L678.405 81.1168L632.245 165.976L631.956 165.976H539.927L493.767 81.1168L537.642 0.731641ZM919.657 165.976L919.656 165.978H827.626L781.466 81.1195L825.001 1.35788L825.591 0.269531H921.976L921.978 0.272217L922.135 0.560893L966.103 81.1168L919.943 165.976H919.657ZM246.707 345.876L200.547 261.326H108.518L74.5508 323.658V368.402L108.518 430.735H200.547L246.707 345.876ZM390.705 257.932L344.545 173.073H252.515L206.355 257.932L252.515 342.791H344.545L390.705 257.932ZM390.705 433.821L344.545 349.271H252.515L206.355 433.821L206.439 433.975L206.355 434.129L252.515 518.679H344.545L390.705 433.821ZM965.074 257.932L918.914 173.073H826.884L780.724 257.932L826.884 342.791H918.914L965.074 257.932ZM965.074 433.821L918.914 349.271H826.884L780.724 433.821L780.808 433.975L780.724 434.129L826.884 518.679H918.914L965.074 433.821ZM1109.59 170.133L1063.43 85.583H971.398L925.238 170.133L925.322 170.288L925.238 170.442L971.398 254.992H1063.43L1109.59 170.133ZM534.409 169.987L488.249 85.1283H396.22L350.06 169.987L396.22 254.846H488.249L534.409 169.987ZM534.409 345.876L488.249 261.326H396.22L350.06 345.876L396.22 430.735H488.249L534.409 345.876ZM678.406 257.932L632.246 173.073H540.216L494.056 257.932L540.216 342.791H632.246L678.406 257.932ZM678.406 433.821L632.246 349.271H540.216L494.056 433.821L494.14 433.975L494.056 434.129L540.216 518.988H632.246L678.406 434.129L678.322 433.975L678.406 433.821ZM822.109 169.987L775.949 85.1283H683.919L637.759 169.987L683.919 254.846H775.949L822.109 169.987ZM246.707 522.691L200.547 437.832H108.518L74.5508 500.165V544.908L108.518 607.549H200.547L246.707 522.691ZM390.705 610.635L344.545 525.776H252.515L206.355 610.635L252.515 695.494H344.545L390.705 610.635ZM534.409 522.691L488.249 437.832H396.22L350.06 522.691L396.22 607.549H488.249L534.409 522.691ZM820.954 346.975L774.794 262.116H682.765L636.605 346.975L682.765 431.833H774.794L820.954 346.975ZM820.954 522.863L774.794 438.313H682.765L636.604 522.863L636.688 523.018L636.604 523.172L682.765 608.031H774.794L820.954 523.172L820.87 523.018L820.954 522.863Z" fill="url(#paint3_linear)"/>
<path opacity="0.03" fill-rule="evenodd" clip-rule="evenodd" d="M-157.135 5797.46L-131.666 5747.23L-131.69 5747.18L-157.135 5696.63V5696.99V5797.46ZM-157.135 5680.96L-125.764 5743.31H-27.3052L22.0797 5645.68L21.9899 5645.51L22.0797 5645.33L-27.3052 5547.71H-125.764L-157.135 5610.06V5680.96ZM-131.666 5543.08L-157.135 5593.31V5492.84L-131.666 5543.08ZM-157.135 5477.17L-125.764 5539.52H-27.3052L22.0797 5441.54L-27.3052 5343.56H-125.764L-157.135 5405.91V5476.81V5477.17ZM-21.0886 5543.08L28.2963 5641.06H126.755L176.14 5543.08L126.755 5445.1H28.2963L-21.0886 5543.08ZM-21.0886 5340L28.2963 5437.62H126.755L176.14 5340L176.05 5339.82L176.14 5339.64L126.755 5241.67H28.2963L-21.0886 5339.64L-20.9988 5339.82L-21.0886 5340ZM-157.135 5390.23L-131.666 5340L-131.716 5339.9L-157.135 5289.41V5289.76V5390.23ZM-2.11499 5289.74L23.354 5239.5L23.3425 5239.48L-2.11499 5188.91V5189.26V5289.74ZM-2.11414 5173.23L29.2561 5235.58H127.715L177.1 5137.96L177.01 5137.78L177.1 5137.6L127.715 5039.98H29.2561L-2.11414 5102.33V5173.23ZM23.354 5035.35L-2.11499 5085.59V4985.12L23.354 5035.35ZM-2.11414 4969.44L29.2561 5031.79H127.715L177.1 4933.81L127.715 4835.84H29.2561L-2.11414 4898.19V4969.09V4969.44ZM133.931 5035.35L183.316 5133.33H281.775L331.16 5035.35L281.775 4937.38H183.316L133.931 5035.35ZM-2.11499 4882.51L23.354 4832.27L-2.11499 4781.68V4782.04V4882.51ZM1136.3 5437.68L1086.91 5339.7L1136.3 5241.73H1234.76L1284.14 5339.7L1234.76 5437.68H1136.3ZM520.935 5437.15L471.55 5339.53L520.935 5241.55H619.394L668.779 5339.17L668.689 5339.35L668.779 5339.53L619.394 5437.15H520.935ZM1388.5 5336.14L1437.88 5238.16L1388.5 5140.18H1290.04L1240.66 5238.16L1290.04 5336.14H1388.5ZM1290.04 5132.7L1240.66 5035.08L1290.04 4937.11H1388.5L1437.88 5034.73L1437.79 5034.9L1437.88 5035.08L1388.5 5132.7H1290.04ZM675.545 5336.14L626.16 5238.16L675.545 5140.18H774.004L823.389 5238.16L774.004 5336.14H675.545ZM675.545 5132.7L626.16 5035.08L675.545 4937.11H774.004L823.389 5034.73L823.299 5034.9L823.389 5035.08L774.004 5132.7H675.545ZM1136.3 5234.24L1086.91 5136.62L1136.3 5038.65H1234.76L1284.14 5136.62L1234.76 5234.24H1136.3ZM982.241 5336.14L932.856 5238.16L982.241 5140.18H1080.7L1130.08 5238.16L1080.7 5336.14H982.241ZM982.241 5132.7L932.856 5035.08L932.946 5034.9L932.856 5034.73L982.241 4936.75H1080.7L1130.08 5034.73L1129.99 5034.9L1130.08 5035.08L1080.7 5132.7H982.241ZM828.499 5437.68L779.114 5339.7L828.499 5241.73H926.958L976.343 5339.7L926.958 5437.68H828.499ZM1136.3 5030.45L1086.91 4932.48L1136.3 4834.5H1234.76L1284.14 4932.48L1234.76 5030.45H1136.3ZM829.733 5233.33L780.348 5135.35L829.733 5037.38H928.192L977.577 5135.35L928.192 5233.33H829.733ZM829.733 5029.9L780.348 4932.28L780.438 4932.1L780.348 4931.92L829.733 4833.94H928.192L977.577 4931.92L977.487 4932.1L977.577 4932.28L928.192 5029.9H829.733Z" fill="url(#paint4_linear)"/>
<path opacity="0.03" fill-rule="evenodd" clip-rule="evenodd" d="M858.439 4929.29C858.072 4930 857.34 4930.45 856.542 4930.45H759.792C759.791 4930.45 759.79 4930.44 759.79 4930.44L759.789 4930.44C759.789 4930.44 759.789 4930.44 759.788 4930.44C759.788 4930.44 759.788 4930.44 759.787 4930.44L759.574 4930.03L715.622 4845.74C715.169 4844.88 715.169 4843.84 715.62 4842.97L761.79 4754.13C761.832 4754.05 761.914 4754 762.004 4754H762.148C762.149 4754 762.149 4754 762.15 4754C762.15 4754 762.151 4754 762.152 4754H853.949C855.069 4754 856.095 4754.62 856.611 4755.62L902.009 4842.97C902.46 4843.84 902.459 4844.87 902.007 4845.74L858.439 4929.29ZM1447.45 4561.06C1447 4561.93 1447 4562.96 1447.45 4563.83L1492.85 4650.86C1493.37 4651.85 1494.39 4652.47 1495.51 4652.47H1585.49C1586.61 4652.47 1587.64 4651.85 1588.15 4650.86L1621.53 4586.75C1621.75 4586.33 1621.87 4585.85 1621.87 4585.37V4539.19C1621.87 4538.71 1621.75 4538.24 1621.53 4537.81L1588.15 4473.7C1587.64 4472.71 1586.61 4472.09 1585.49 4472.09H1495.51C1494.39 4472.09 1493.37 4472.71 1492.85 4473.71L1447.45 4561.06ZM1300.96 4654.7C1300.51 4655.57 1300.51 4656.6 1300.96 4657.47L1346.36 4744.83C1346.88 4745.82 1347.91 4746.44 1349.03 4746.44H1439C1440.12 4746.44 1441.15 4745.82 1441.66 4744.83L1487.06 4657.47C1487.51 4656.6 1487.51 4655.57 1487.06 4654.7L1441.66 4567.35C1441.15 4566.35 1440.12 4565.73 1439 4565.73H1349.03C1347.91 4565.73 1346.88 4566.35 1346.36 4567.35L1300.96 4654.7ZM1300.97 4467.42C1300.51 4468.29 1300.52 4469.32 1300.97 4470.19L1346.36 4557.22C1346.88 4558.21 1347.9 4558.83 1349.02 4558.83H1439.01C1440.12 4558.83 1441.15 4558.21 1441.67 4557.22L1487.74 4468.88C1487.77 4468.83 1487.77 4468.77 1487.74 4468.72C1487.71 4468.67 1487.71 4468.61 1487.74 4468.56C1487.77 4468.5 1487.77 4468.44 1487.74 4468.39L1441.67 4380.06C1441.15 4379.07 1440.12 4378.45 1439.01 4378.45H1349.03C1347.91 4378.45 1346.88 4379.07 1346.36 4380.06L1300.97 4467.42ZM716.667 4654.7C716.216 4655.57 716.216 4656.6 716.667 4657.47L762.066 4744.83C762.582 4745.82 763.608 4746.44 764.728 4746.44H854.705C855.824 4746.44 856.85 4745.82 857.367 4744.83L902.765 4657.47C903.216 4656.6 903.216 4655.57 902.765 4654.7L857.367 4567.35C856.85 4566.35 855.824 4565.73 854.705 4565.73H764.728C763.608 4565.73 762.582 4566.35 762.066 4567.35L716.667 4654.7ZM716.668 4467.42C716.217 4468.29 716.217 4469.32 716.67 4470.19L762.065 4557.22C762.582 4558.21 763.607 4558.83 764.724 4558.83H854.708C855.825 4558.83 856.851 4558.21 857.367 4557.22L903.442 4468.88C903.468 4468.83 903.468 4468.77 903.442 4468.72C903.415 4468.67 903.415 4468.61 903.442 4468.56C903.468 4468.5 903.468 4468.44 903.442 4468.39L857.367 4380.06C856.851 4379.07 855.825 4378.45 854.708 4378.45H764.728C763.608 4378.45 762.582 4379.07 762.066 4380.06L716.668 4467.42ZM569.656 4748.19C569.204 4749.06 569.205 4750.09 569.658 4750.96L615.052 4837.99C615.569 4838.98 616.594 4839.6 617.712 4839.6H707.695C708.813 4839.6 709.838 4838.98 710.355 4837.99L756.429 4749.66C756.456 4749.61 756.456 4749.55 756.429 4749.49C756.403 4749.44 756.403 4749.38 756.429 4749.33C756.456 4749.28 756.456 4749.22 756.429 4749.17L710.355 4660.83C709.838 4659.84 708.813 4659.22 707.695 4659.22H617.715C616.596 4659.22 615.57 4659.84 615.053 4660.84L569.656 4748.19ZM1154.77 4748.35C1154.32 4749.21 1154.32 4750.25 1154.77 4751.11L1200.17 4838.47C1200.69 4839.46 1201.72 4840.09 1202.84 4840.09H1292.81C1293.93 4840.09 1294.96 4839.46 1295.47 4838.47L1340.87 4751.11C1341.32 4750.25 1341.32 4749.21 1340.87 4748.35L1295.47 4660.99C1294.96 4660 1293.93 4659.37 1292.81 4659.37H1202.84C1201.72 4659.37 1200.69 4660 1200.17 4660.99L1154.77 4748.35ZM1154.78 4561.06C1154.32 4561.93 1154.33 4562.96 1154.78 4563.83L1200.17 4650.86C1200.69 4651.85 1201.71 4652.47 1202.83 4652.47H1292.82C1293.93 4652.47 1294.96 4651.85 1295.48 4650.86L1340.87 4563.83C1341.32 4562.96 1341.32 4561.93 1340.87 4561.06L1295.47 4473.71C1294.96 4472.71 1293.93 4472.09 1292.81 4472.09H1202.84C1201.72 4472.09 1200.69 4472.71 1200.17 4473.71L1154.78 4561.06ZM1008.29 4654.7C1007.84 4655.57 1007.84 4656.6 1008.29 4657.47L1053.69 4744.83C1054.21 4745.82 1055.23 4746.44 1056.35 4746.44H1146.33C1147.45 4746.44 1148.47 4745.82 1148.99 4744.83L1194.39 4657.47C1194.84 4656.6 1194.84 4655.57 1194.39 4654.7L1148.99 4567.35C1148.47 4566.35 1147.45 4565.73 1146.33 4565.73H1056.35C1055.23 4565.73 1054.21 4566.35 1053.69 4567.35L1008.29 4654.7ZM1007.61 4468.72C1007.59 4468.77 1007.59 4468.83 1007.61 4468.88L1053.69 4557.22C1054.21 4558.21 1055.23 4558.83 1056.35 4558.83H1146.33C1147.45 4558.83 1148.47 4558.21 1148.99 4557.22L1195.07 4468.88C1195.09 4468.83 1195.09 4468.77 1195.07 4468.72C1195.04 4468.67 1195.04 4468.61 1195.07 4468.56C1195.09 4468.5 1195.09 4468.44 1195.07 4468.39L1148.99 4379.73C1148.47 4378.74 1147.45 4378.12 1146.33 4378.12H1056.35C1055.23 4378.12 1054.21 4378.74 1053.69 4379.73L1007.61 4468.39C1007.59 4468.44 1007.59 4468.5 1007.61 4468.56C1007.64 4468.61 1007.64 4468.67 1007.61 4468.72ZM862.103 4748.35C861.653 4749.21 861.653 4750.25 862.103 4751.11L907.502 4838.47C908.018 4839.46 909.045 4840.09 910.164 4840.09H1000.14C1001.26 4840.09 1002.29 4839.46 1002.8 4838.47L1048.2 4751.11C1048.65 4750.25 1048.65 4749.21 1048.2 4748.35L1002.8 4660.99C1002.29 4660 1001.26 4659.37 1000.14 4659.37H910.164C909.045 4659.37 908.018 4660 907.502 4660.99L862.103 4748.35ZM1447.45 4372.79C1447 4373.66 1447 4374.69 1447.45 4375.56L1492.85 4462.91C1493.37 4463.91 1494.39 4464.53 1495.51 4464.53H1585.49C1586.61 4464.53 1587.64 4463.91 1588.15 4462.92L1621.53 4398.81C1621.75 4398.38 1621.87 4397.91 1621.87 4397.43V4351.25C1621.87 4350.77 1621.75 4350.29 1621.53 4349.87L1588.15 4285.44C1587.63 4284.44 1586.61 4283.82 1585.49 4283.82H1495.51C1494.39 4283.82 1493.37 4284.44 1492.85 4285.43L1447.45 4372.79ZM1300.96 4279.15C1300.51 4280.02 1300.51 4281.05 1300.96 4281.92L1346.36 4369.27C1346.88 4370.27 1347.91 4370.89 1349.03 4370.89H1439C1440.12 4370.89 1441.15 4370.27 1441.66 4369.27L1487.06 4281.92C1487.51 4281.05 1487.51 4280.02 1487.06 4279.15L1441.66 4191.79C1441.15 4190.8 1440.12 4190.18 1439 4190.18H1349.03C1347.91 4190.18 1346.88 4190.8 1346.36 4191.79L1300.96 4279.15ZM1154.77 4372.79C1154.32 4373.66 1154.32 4374.69 1154.77 4375.56L1200.17 4462.91C1200.69 4463.91 1201.72 4464.53 1202.84 4464.53H1292.81C1293.93 4464.53 1294.96 4463.91 1295.47 4462.91L1340.87 4375.56C1341.32 4374.69 1341.32 4373.66 1340.87 4372.79L1295.47 4285.43C1294.96 4284.44 1293.93 4283.82 1292.81 4283.82H1202.84C1201.72 4283.82 1200.69 4284.44 1200.17 4285.43L1154.77 4372.79ZM1008.29 4279.15C1007.84 4280.02 1007.84 4281.05 1008.29 4281.92L1053.69 4369.27C1054.21 4370.27 1055.23 4370.89 1056.35 4370.89H1146.33C1147.45 4370.89 1148.47 4370.27 1148.99 4369.27L1194.39 4281.92C1194.84 4281.05 1194.84 4280.02 1194.39 4279.15L1148.99 4191.79C1148.47 4190.8 1147.45 4190.18 1146.33 4190.18H1056.35C1055.23 4190.18 1054.21 4190.8 1053.69 4191.79L1008.29 4279.15ZM863.277 4559.89C862.827 4560.76 862.827 4561.79 863.277 4562.66L908.676 4650.02C909.193 4651.01 910.219 4651.63 911.338 4651.63H1001.32C1002.43 4651.63 1003.46 4651.01 1003.98 4650.02L1049.38 4562.66C1049.83 4561.79 1049.83 4560.76 1049.38 4559.89L1003.98 4472.54C1003.46 4471.54 1002.43 4470.92 1001.32 4470.92H911.338C910.219 4470.92 909.193 4471.54 908.676 4472.54L863.277 4559.89ZM862.601 4373.91C862.574 4373.96 862.574 4374.02 862.601 4374.07L908.675 4462.41C909.192 4463.4 910.217 4464.02 911.335 4464.02H1001.32C1002.44 4464.02 1003.46 4463.4 1003.98 4462.41L1050.05 4374.07C1050.08 4374.02 1050.08 4373.96 1050.05 4373.91C1050.03 4373.86 1050.03 4373.8 1050.05 4373.74C1050.08 4373.69 1050.08 4373.63 1050.05 4373.58L1003.98 4284.92C1003.46 4283.93 1002.43 4283.3 1001.32 4283.3H911.338C910.219 4283.3 909.193 4283.93 908.676 4284.92L862.601 4373.58C862.574 4373.63 862.574 4373.69 862.601 4373.74C862.628 4373.8 862.628 4373.86 862.601 4373.91ZM-4.1615 4562.01C-4.1615 4565.14 0.0441895 4566.18 1.49719 4563.4L19.332 4529.28C19.7856 4528.41 19.7872 4527.38 19.3361 4526.51L-4.01001 4481.53C-4.04871 4481.45 -4.1615 4481.48 -4.1615 4481.57V4562.01ZM-4.1604 4466.05C-4.1604 4466.53 -4.0448 4467 -3.82336 4467.43L24.8286 4522.66C25.3445 4523.65 26.3713 4524.28 27.4916 4524.28H117.47C118.588 4524.28 119.613 4523.66 120.13 4522.67L166.204 4434.33C166.231 4434.28 166.231 4434.22 166.204 4434.17C166.178 4434.12 166.178 4434.05 166.204 4434C166.231 4433.95 166.231 4433.89 166.204 4433.84L120.13 4345.5C119.613 4344.51 118.588 4343.89 117.47 4343.89H27.4916C26.3713 4343.89 25.3445 4344.52 24.8286 4345.51L-3.82336 4400.74C-4.0448 4401.17 -4.1604 4401.64 -4.1604 4402.12V4466.05ZM19.3297 4338.23C19.7848 4339.1 19.7848 4340.14 19.3297 4341.01L1.49731 4375.13C0.0443115 4377.91 -4.16138 4376.87 -4.16138 4373.74V4305.51C-4.16138 4302.37 0.0443115 4301.34 1.49731 4304.12L19.3297 4338.23ZM-4.1604 4278.51C-4.1604 4278.73 -4.10852 4278.94 -4.00916 4279.13L24.8286 4334.72C25.3445 4335.71 26.3713 4336.34 27.4916 4336.34H117.467C118.587 4336.34 119.613 4335.71 120.129 4334.72L165.528 4247.36C165.979 4246.5 165.979 4245.46 165.528 4244.6L120.129 4157.24C119.613 4156.25 118.587 4155.62 117.467 4155.62H27.4916C26.3713 4155.62 25.3445 4156.25 24.8286 4157.24L-3.82336 4212.47C-4.0448 4212.9 -4.1604 4213.37 -4.1604 4213.86V4278.51ZM125.919 4338.24C125.468 4339.11 125.468 4340.14 125.919 4341.01L171.318 4428.36C171.834 4429.36 172.86 4429.98 173.979 4429.98H263.956C265.076 4429.98 266.102 4429.36 266.618 4428.36L312.017 4341.01C312.468 4340.14 312.468 4339.11 312.017 4338.24L266.618 4250.88C266.102 4249.89 265.076 4249.27 263.956 4249.27H173.979C172.86 4249.27 171.834 4249.89 171.318 4250.88L125.919 4338.24ZM125.242 4152.25C125.216 4152.31 125.216 4152.37 125.242 4152.42L171.317 4240.75C171.833 4241.74 172.859 4242.37 173.976 4242.37H263.959C265.077 4242.37 266.103 4241.74 266.619 4240.75L312.693 4152.42C312.72 4152.37 312.72 4152.31 312.694 4152.25C312.667 4152.2 312.667 4152.14 312.694 4152.09C312.72 4152.04 312.72 4151.98 312.694 4151.93L266.618 4063.27C266.102 4062.27 265.076 4061.65 263.956 4061.65H173.979C172.86 4061.65 171.834 4062.27 171.318 4063.27L125.242 4151.93C125.215 4151.98 125.216 4152.04 125.242 4152.09C125.269 4152.14 125.269 4152.2 125.242 4152.25ZM-4.16138 4186.45C-4.16138 4189.59 0.0443115 4190.62 1.49731 4187.84L20.0244 4152.4C20.0443 4152.36 20.0444 4152.31 20.0247 4152.28L-4.01038 4105.97C-4.04895 4105.9 -4.16138 4105.92 -4.16138 4106.01V4186.45ZM1055.25 4175.4C1054.13 4175.4 1053.11 4174.78 1052.59 4173.78L1007.19 4086.43C1006.74 4085.56 1006.74 4084.53 1007.19 4083.66L1052.59 3996.3C1053.11 3995.31 1054.13 3994.69 1055.25 3994.69H1145.23C1146.35 3994.69 1147.38 3995.31 1147.89 3996.3L1193.29 4083.66C1193.74 4084.53 1193.74 4085.56 1193.29 4086.43L1147.89 4173.78C1147.38 4174.78 1146.35 4175.4 1145.23 4175.4H1055.25ZM470.129 4174.91C469.011 4174.91 467.986 4174.29 467.469 4173.3L422.074 4086.27C421.622 4085.4 421.621 4084.37 422.072 4083.5L467.47 3996.15C467.986 3995.15 469.012 3994.53 470.132 3994.53H560.112C561.23 3994.53 562.255 3995.15 562.772 3996.14L608.846 4084.48C608.873 4084.53 608.873 4084.59 608.846 4084.64C608.819 4084.69 608.819 4084.75 608.846 4084.8C608.873 4084.86 608.873 4084.92 608.846 4084.97L562.772 4173.3C562.255 4174.29 561.23 4174.91 560.112 4174.91H470.129ZM1291.42 4081.76C1292.54 4081.76 1293.57 4081.13 1294.08 4080.14L1339.48 3992.78C1339.93 3991.92 1339.93 3990.88 1339.48 3990.02L1294.08 3902.66C1293.57 3901.67 1292.54 3901.04 1291.42 3901.04H1201.44C1200.32 3901.04 1199.3 3901.67 1198.78 3902.66L1153.38 3990.02C1152.93 3990.88 1152.93 3991.92 1153.38 3992.78L1198.78 4080.14C1199.3 4081.13 1200.32 4081.76 1201.44 4081.76H1291.42ZM1201.44 3894.14C1200.32 3894.14 1199.3 3893.52 1198.78 3892.53L1153.38 3805.5C1152.93 3804.63 1152.93 3803.6 1153.38 3802.73L1198.78 3715.37C1199.3 3714.38 1200.32 3713.76 1201.44 3713.76H1291.42C1292.54 3713.76 1293.57 3714.38 1294.08 3715.37L1340.16 3803.7C1340.18 3803.75 1340.18 3803.82 1340.16 3803.87C1340.13 3803.92 1340.13 3803.98 1340.16 3804.03C1340.18 3804.08 1340.18 3804.14 1340.16 3804.2L1294.08 3892.53C1293.57 3893.52 1292.54 3894.14 1291.42 3894.14H1201.44ZM617.144 4081.76C616.024 4081.76 614.998 4081.13 614.482 4080.14L569.083 3992.78C568.632 3991.92 568.632 3990.88 569.083 3990.02L614.482 3902.66C614.998 3901.67 616.024 3901.04 617.144 3901.04H707.121C708.24 3901.04 709.266 3901.67 709.783 3902.66L755.181 3990.02C755.632 3990.88 755.632 3991.92 755.181 3992.78L709.783 4080.14C709.266 4081.13 708.24 4081.76 707.121 4081.76H617.144ZM617.141 3894.14C616.023 3894.14 614.998 3893.52 614.481 3892.53L569.086 3805.5C568.633 3804.63 568.633 3803.6 569.084 3802.73L614.482 3715.37C614.998 3714.38 616.024 3713.76 617.144 3713.76H707.124C708.241 3713.76 709.267 3714.38 709.784 3715.37L755.858 3803.7C755.884 3803.75 755.884 3803.82 755.858 3803.87C755.831 3803.92 755.831 3803.98 755.858 3804.03C755.884 3804.08 755.884 3804.14 755.858 3804.2L709.784 3892.53C709.267 3893.52 708.241 3894.14 707.124 3894.14H617.141ZM1055.25 3987.79C1054.13 3987.79 1053.11 3987.16 1052.59 3986.17L1007.2 3899.14C1006.74 3898.27 1006.74 3897.24 1007.19 3896.37L1052.59 3809.02C1053.11 3808.02 1054.13 3807.4 1055.25 3807.4H1145.23C1146.35 3807.4 1147.38 3808.02 1147.89 3809.02L1193.29 3896.37C1193.74 3897.24 1193.74 3898.27 1193.29 3899.14L1147.89 3986.17C1147.38 3987.16 1146.35 3987.79 1145.23 3987.79H1055.25ZM908.768 4081.76C907.649 4081.76 906.622 4081.13 906.106 4080.14L860.707 3992.78C860.256 3991.92 860.256 3990.88 860.707 3990.02L906.106 3902.66C906.622 3901.67 907.649 3901.04 908.768 3901.04H998.745C999.865 3901.04 1000.89 3901.67 1001.41 3902.66L1046.81 3990.02C1047.26 3990.88 1047.26 3991.92 1046.81 3992.78L1001.41 4080.14C1000.89 4081.13 999.865 4081.76 998.745 4081.76H908.768ZM908.765 3894.14C907.647 3894.14 906.622 3893.52 906.105 3892.53L860.031 3804.2C860.004 3804.14 860.004 3804.08 860.031 3804.03C860.058 3803.98 860.058 3803.92 860.031 3803.87C860.004 3803.82 860.004 3803.75 860.031 3803.7L906.106 3715.05C906.622 3714.05 907.649 3713.43 908.768 3713.43H998.745C999.865 3713.43 1000.89 3714.05 1001.41 3715.05L1047.48 3803.7C1047.51 3803.75 1047.51 3803.82 1047.48 3803.87C1047.46 3803.92 1047.46 3803.98 1047.48 3804.03C1047.51 3804.08 1047.51 3804.14 1047.48 3804.2L1001.41 3892.53C1000.89 3893.52 999.866 3894.14 998.748 3894.14H908.765ZM762.581 4175.4C761.462 4175.4 760.435 4174.78 759.919 4173.78L714.52 4086.43C714.07 4085.56 714.07 4084.53 714.52 4083.66L759.919 3996.3C760.435 3995.31 761.462 3994.69 762.581 3994.69H852.558C853.677 3994.69 854.704 3995.31 855.22 3996.3L900.619 4083.66C901.07 4084.53 901.07 4085.56 900.619 4086.43L855.22 4173.78C854.704 4174.78 853.677 4175.4 852.558 4175.4H762.581ZM1055.25 3799.84C1054.13 3799.84 1053.11 3799.22 1052.59 3798.23L1007.19 3710.87C1006.74 3710 1006.74 3708.97 1007.19 3708.1L1052.59 3620.75C1053.11 3619.75 1054.13 3619.13 1055.25 3619.13H1145.23C1146.35 3619.13 1147.38 3619.75 1147.89 3620.75L1193.29 3708.1C1193.74 3708.97 1193.74 3710 1193.29 3710.87L1147.89 3798.23C1147.38 3799.22 1146.35 3799.84 1145.23 3799.84H1055.25ZM763.755 3986.94C762.635 3986.94 761.609 3986.32 761.093 3985.33L715.694 3897.97C715.243 3897.1 715.243 3896.07 715.694 3895.2L761.093 3807.85C761.609 3806.85 762.635 3806.23 763.755 3806.23H853.732C854.851 3806.23 855.878 3806.85 856.394 3807.85L901.793 3895.2C902.243 3896.07 902.243 3897.1 901.793 3897.97L856.394 3985.33C855.878 3986.32 854.851 3986.94 853.732 3986.94H763.755ZM763.751 3799.33C762.633 3799.33 761.608 3798.71 761.091 3797.72L715.017 3709.38C714.99 3709.33 714.99 3709.27 715.017 3709.22C715.044 3709.17 715.044 3709.11 715.017 3709.06C714.99 3709 714.99 3708.94 715.017 3708.89L761.092 3620.23C761.609 3619.24 762.635 3618.62 763.754 3618.62H853.731C854.851 3618.62 855.877 3619.24 856.393 3620.23L902.469 3708.89C902.495 3708.94 902.495 3709 902.469 3709.06C902.442 3709.11 902.442 3709.17 902.469 3709.22C902.495 3709.27 902.495 3709.33 902.468 3709.38L856.394 3797.72C855.877 3798.71 854.852 3799.33 853.734 3799.33H763.751Z" fill="url(#paint5_linear)"/>
<path opacity="0.04" fill-rule="evenodd" clip-rule="evenodd" d="M173.749 2911.63L173.999 2911.16H270.384L270.385 2911.16L270.642 2911.64L314.512 2992.01L268.352 3076.87L268.063 3076.87H176.033L129.873 2992.01L173.749 2911.63ZM555.764 3076.87L555.762 3076.87H463.732L417.572 2992.01L461.108 2912.25L461.698 2911.16H558.082L558.085 2911.17L558.241 2911.45L602.21 2992.01L556.05 3076.87H555.764ZM-117.187 3256.77L-163.347 3172.22H-255.377L-289.344 3234.55V3279.3L-255.377 3341.63H-163.347L-117.187 3256.77ZM26.8107 3168.83L-19.3493 3083.97H-111.379L-157.539 3168.83L-111.379 3253.68H-19.3493L26.8107 3168.83ZM26.8107 3344.71L-19.3493 3260.16H-111.379L-157.539 3344.71L-157.455 3344.87L-157.539 3345.02L-111.379 3429.57H-19.3493L26.8107 3344.71ZM601.179 3168.83L555.019 3083.97H462.99L416.83 3168.83L462.99 3253.68H555.019L601.179 3168.83ZM601.179 3344.71L555.019 3260.16H462.99L416.83 3344.71L416.914 3344.87L416.83 3345.02L462.99 3429.57H555.019L601.179 3344.71ZM745.693 3081.03L699.533 2996.48H607.503L561.343 3081.03L561.427 3081.18L561.343 3081.34L607.503 3165.89H699.533L745.693 3081.03ZM170.515 3080.88L124.355 2996.02H32.3251L-13.835 3080.88L32.3251 3165.74H124.355L170.515 3080.88ZM170.515 3256.77L124.355 3172.22H32.3251L-13.835 3256.77L32.3251 3341.63H124.355L170.515 3256.77ZM314.511 3168.83L268.351 3083.97H176.322L130.162 3168.83L176.322 3253.68H268.351L314.511 3168.83ZM314.511 3344.71L268.351 3260.16H176.322L130.162 3344.71L130.246 3344.87L130.162 3345.02L176.322 3429.88H268.351L314.511 3345.02L314.427 3344.87L314.511 3344.71ZM458.214 3080.88L412.054 2996.02H320.024L273.864 3080.88L320.024 3165.74H412.054L458.214 3080.88ZM-117.187 3433.58L-163.347 3348.73H-255.377L-289.344 3411.06V3455.8L-255.377 3518.44H-163.347L-117.187 3433.58ZM26.8107 3521.53L-19.3493 3436.67H-111.379L-157.539 3521.53L-111.379 3606.39H-19.3493L26.8107 3521.53ZM170.515 3433.58L124.355 3348.73H32.3251L-13.835 3433.58L32.3251 3518.44H124.355L170.515 3433.58ZM457.06 3257.87L410.9 3173.01H318.87L272.71 3257.87L318.87 3342.73H410.9L457.06 3257.87ZM457.06 3433.76L410.9 3349.21H318.87L272.71 3433.76L272.794 3433.91L272.71 3434.07L318.87 3518.92H410.9L457.06 3434.07L456.976 3433.91L457.06 3433.76Z" fill="url(#paint6_linear)"/>
<path opacity="0.03" fill-rule="evenodd" clip-rule="evenodd" d="M-231.711 7630.28L-206.242 7680.51L-206.266 7680.56L-231.711 7731.1V7730.75V7630.28ZM-231.711 7746.78L-200.341 7684.43H-101.881L-52.4965 7782.05L-52.5863 7782.23L-52.4965 7782.41L-101.881 7880.03H-200.341L-231.711 7817.68V7746.78ZM-206.242 7884.66L-231.711 7834.42V7934.9L-206.242 7884.66ZM-231.711 7950.57L-200.341 7888.22H-101.881L-52.4965 7986.2L-101.881 8084.17H-200.341L-231.711 8021.83V7950.93V7950.57ZM-95.6648 7884.66L-46.2799 7786.68H52.1792L101.564 7884.66L52.1792 7982.63H-46.2799L-95.6648 7884.66ZM-95.6648 8087.74L-46.2799 7990.12H52.1792L101.564 8087.74L101.474 8087.92L101.564 8088.09L52.1792 8186.07H-46.2799L-95.6648 8088.09L-95.575 8087.92L-95.6648 8087.74ZM-231.711 8037.5L-206.242 8087.74L-206.292 8087.84L-231.711 8138.33V8137.97V8037.5ZM-76.6912 8138L-51.2222 8188.24L-51.2336 8188.26L-76.6912 8238.83V8238.47V8138ZM-76.6903 8254.51L-45.3201 8192.16H53.139L102.524 8289.78L102.434 8289.96L102.524 8290.13L53.139 8387.75H-45.3201L-76.6903 8325.41V8254.51ZM-51.2222 8392.39L-76.6912 8342.15V8442.62L-51.2222 8392.39ZM-76.6903 8458.3L-45.3201 8395.95H53.139L102.524 8493.92L53.139 8591.9H-45.3201L-76.6903 8529.55V8458.65V8458.3ZM59.3552 8392.38L108.74 8294.41H207.199L256.584 8392.38L207.199 8490.36H108.74L59.3552 8392.38ZM-76.6912 8545.23L-51.2222 8595.46L-76.6912 8646.06V8645.7V8545.23ZM1061.72 7990.06L1012.34 8088.04L1061.72 8186.01H1160.18L1209.56 8088.04L1160.18 7990.06H1061.72ZM446.359 7990.59L396.974 8088.2L446.359 8186.18H544.818L594.203 8088.56L594.113 8088.38L594.203 8088.2L544.818 7990.59H446.359ZM1313.92 8091.6L1363.31 8189.58L1313.92 8287.55H1215.46L1166.08 8189.58L1215.46 8091.6H1313.92ZM1215.46 8295.03L1166.08 8392.65L1215.46 8490.63H1313.92L1363.31 8393.01L1363.22 8392.83L1363.31 8392.65L1313.92 8295.03H1215.46ZM600.969 8091.6L551.584 8189.58L600.969 8287.55H699.428L748.813 8189.58L699.428 8091.6H600.969ZM600.969 8295.03L551.584 8392.65L600.969 8490.63H699.428L748.813 8393.01L748.723 8392.83L748.813 8392.65L699.428 8295.03H600.969ZM1061.72 8193.49L1012.34 8291.11L1061.72 8389.09H1160.18L1209.56 8291.11L1160.18 8193.49H1061.72ZM907.664 8091.6L858.28 8189.58L907.664 8287.55H1006.12L1055.51 8189.58L1006.12 8091.6H907.664ZM907.664 8295.03L858.28 8392.65L858.369 8392.83L858.28 8393.01L907.664 8490.99H1006.12L1055.51 8393.01L1055.42 8392.83L1055.51 8392.65L1006.12 8295.03H907.664ZM753.922 7990.06L704.538 8088.04L753.922 8186.01H852.382L901.766 8088.04L852.382 7990.06H753.922ZM1061.72 8397.28L1012.34 8495.26L1061.72 8593.24H1160.18L1209.56 8495.26L1160.18 8397.28H1061.72ZM755.157 8194.41L705.772 8292.38L755.157 8390.36H853.616L903.001 8292.38L853.616 8194.41H755.157ZM755.156 8397.84L705.772 8495.46L705.861 8495.64L705.772 8495.82L755.156 8593.79H853.616L903 8495.82L902.911 8495.64L903 8495.46L853.616 8397.84H755.156Z" fill="url(#paint7_linear)"/>
<path opacity="0.03" fill-rule="evenodd" clip-rule="evenodd" d="M783.865 7777.89C783.497 7778.6 782.766 7779.04 781.968 7779.04H685.218C685.217 7779.04 685.216 7779.04 685.215 7779.04L685.215 7779.04C685.215 7779.04 685.215 7779.04 685.214 7779.04C685.214 7779.04 685.213 7779.04 685.213 7779.04L685 7778.63L641.048 7694.34C640.595 7693.47 640.594 7692.44 641.046 7691.57L687.216 7602.73C687.258 7602.65 687.34 7602.6 687.43 7602.6H687.574C687.575 7602.6 687.575 7602.6 687.576 7602.6C687.576 7602.6 687.577 7602.6 687.577 7602.6H779.375C780.494 7602.6 781.521 7603.22 782.037 7604.21L827.435 7691.57C827.886 7692.43 827.885 7693.47 827.433 7694.34L783.865 7777.89ZM1372.88 7409.65C1372.43 7410.52 1372.43 7411.56 1372.88 7412.43L1418.28 7499.46C1418.79 7500.45 1419.82 7501.07 1420.94 7501.07H1510.92C1512.04 7501.07 1513.06 7500.45 1513.58 7499.45L1546.95 7435.35C1547.17 7434.92 1547.29 7434.45 1547.29 7433.96V7387.79C1547.29 7387.31 1547.17 7386.83 1546.95 7386.4L1513.58 7322.3C1513.06 7321.31 1512.04 7320.68 1510.92 7320.68H1420.94C1419.82 7320.68 1418.79 7321.31 1418.28 7322.3L1372.88 7409.65ZM1226.39 7503.3C1225.94 7504.17 1225.94 7505.2 1226.39 7506.07L1271.79 7593.42C1272.31 7594.42 1273.33 7595.04 1274.45 7595.04H1364.43C1365.55 7595.04 1366.57 7594.42 1367.09 7593.42L1412.49 7506.07C1412.94 7505.2 1412.94 7504.17 1412.49 7503.3L1367.09 7415.94C1366.57 7414.95 1365.55 7414.33 1364.43 7414.33H1274.45C1273.33 7414.33 1272.31 7414.95 1271.79 7415.94L1226.39 7503.3ZM1226.39 7316.01C1225.94 7316.88 1225.94 7317.91 1226.39 7318.78L1271.79 7405.81C1272.31 7406.8 1273.33 7407.43 1274.45 7407.43H1364.43C1365.55 7407.43 1366.57 7406.8 1367.09 7405.81L1413.17 7317.48C1413.19 7317.43 1413.19 7317.37 1413.17 7317.32C1413.14 7317.26 1413.14 7317.2 1413.17 7317.15C1413.19 7317.1 1413.19 7317.04 1413.17 7316.99L1367.09 7228.65C1366.57 7227.66 1365.55 7227.04 1364.43 7227.04H1274.45C1273.33 7227.04 1272.31 7227.66 1271.79 7228.66L1226.39 7316.01ZM642.092 7503.3C641.642 7504.17 641.642 7505.2 642.092 7506.07L687.491 7593.42C688.008 7594.42 689.034 7595.04 690.153 7595.04H780.13C781.25 7595.04 782.276 7594.42 782.792 7593.42L828.191 7506.07C828.642 7505.2 828.642 7504.17 828.191 7503.3L782.792 7415.94C782.276 7414.95 781.25 7414.33 780.13 7414.33H690.153C689.034 7414.33 688.008 7414.95 687.491 7415.94L642.092 7503.3ZM642.094 7316.01C641.642 7316.88 641.643 7317.91 642.096 7318.78L687.49 7405.81C688.007 7406.8 689.032 7407.43 690.15 7407.43H780.133C781.251 7407.43 782.276 7406.8 782.793 7405.81L828.867 7317.48C828.894 7317.43 828.894 7317.37 828.867 7317.32C828.841 7317.26 828.841 7317.2 828.867 7317.15C828.894 7317.1 828.894 7317.04 828.867 7316.99L782.793 7228.65C782.276 7227.66 781.251 7227.04 780.133 7227.04H690.153C689.034 7227.04 688.008 7227.66 687.491 7228.66L642.094 7316.01ZM495.081 7596.79C494.63 7597.65 494.631 7598.69 495.083 7599.56L540.478 7686.59C540.995 7687.58 542.02 7688.2 543.138 7688.2H633.121C634.239 7688.2 635.264 7687.58 635.781 7686.59L681.855 7598.25C681.882 7598.2 681.882 7598.14 681.855 7598.09C681.828 7598.04 681.828 7597.98 681.855 7597.92C681.882 7597.87 681.882 7597.81 681.855 7597.76L635.781 7509.43C635.264 7508.44 634.239 7507.81 633.121 7507.81H543.141C542.022 7507.81 540.995 7508.44 540.479 7509.43L495.081 7596.79ZM1080.2 7596.94C1079.75 7597.81 1079.75 7598.84 1080.2 7599.71L1125.6 7687.07C1126.12 7688.06 1127.14 7688.68 1128.26 7688.68H1218.24C1219.36 7688.68 1220.38 7688.06 1220.9 7687.07L1266.3 7599.71C1266.75 7598.84 1266.75 7597.81 1266.3 7596.94L1220.9 7509.59C1220.38 7508.59 1219.36 7507.97 1218.24 7507.97H1128.26C1127.14 7507.97 1126.12 7508.59 1125.6 7509.59L1080.2 7596.94ZM1080.2 7409.65C1079.75 7410.52 1079.75 7411.56 1080.2 7412.43L1125.6 7499.46C1126.12 7500.45 1127.14 7501.07 1128.26 7501.07H1218.24C1219.36 7501.07 1220.38 7500.45 1220.9 7499.46L1266.3 7412.43C1266.75 7411.56 1266.75 7410.52 1266.3 7409.65L1220.9 7322.3C1220.38 7321.31 1219.36 7320.68 1218.24 7320.68H1128.26C1127.14 7320.68 1126.12 7321.31 1125.6 7322.3L1080.2 7409.65ZM933.716 7503.3C933.265 7504.17 933.265 7505.2 933.716 7506.07L979.115 7593.42C979.631 7594.42 980.657 7595.04 981.777 7595.04H1071.75C1072.87 7595.04 1073.9 7594.42 1074.42 7593.42L1119.81 7506.07C1120.27 7505.2 1120.27 7504.17 1119.81 7503.3L1074.42 7415.94C1073.9 7414.95 1072.87 7414.33 1071.75 7414.33H981.777C980.657 7414.33 979.631 7414.95 979.115 7415.94L933.716 7503.3ZM933.04 7317.32C933.013 7317.37 933.013 7317.43 933.04 7317.48L979.114 7405.81C979.631 7406.8 980.656 7407.43 981.774 7407.43H1071.76C1072.87 7407.43 1073.9 7406.8 1074.42 7405.81L1120.49 7317.48C1120.52 7317.43 1120.52 7317.37 1120.49 7317.32C1120.46 7317.26 1120.46 7317.2 1120.49 7317.15C1120.52 7317.1 1120.52 7317.04 1120.49 7316.99L1074.42 7228.33C1073.9 7227.34 1072.87 7226.71 1071.75 7226.71H981.777C980.657 7226.71 979.631 7227.34 979.115 7228.33L933.04 7316.99C933.013 7317.04 933.013 7317.1 933.04 7317.15C933.066 7317.2 933.066 7317.26 933.04 7317.32ZM787.529 7596.94C787.078 7597.81 787.078 7598.84 787.529 7599.71L832.928 7687.07C833.444 7688.06 834.47 7688.68 835.59 7688.68H925.567C926.686 7688.68 927.713 7688.06 928.229 7687.07L973.628 7599.71C974.078 7598.84 974.078 7597.81 973.628 7596.94L928.229 7509.59C927.713 7508.59 926.686 7507.97 925.567 7507.97H835.59C834.47 7507.97 833.444 7508.59 832.928 7509.59L787.529 7596.94ZM1372.88 7221.39C1372.43 7222.25 1372.43 7223.29 1372.88 7224.15L1418.28 7311.51C1418.79 7312.5 1419.82 7313.13 1420.94 7313.13H1510.92C1512.04 7313.13 1513.06 7312.5 1513.58 7311.51L1546.95 7247.41C1547.17 7246.98 1547.29 7246.5 1547.29 7246.02V7199.84C1547.29 7199.36 1547.18 7198.89 1546.95 7198.46L1513.58 7134.03C1513.06 7133.04 1512.03 7132.41 1510.91 7132.41H1420.94C1419.82 7132.41 1418.79 7133.04 1418.28 7134.03L1372.88 7221.39ZM1226.39 7127.74C1225.94 7128.61 1225.94 7129.64 1226.39 7130.51L1271.79 7217.87C1272.31 7218.86 1273.33 7219.48 1274.45 7219.48H1364.43C1365.55 7219.48 1366.57 7218.86 1367.09 7217.87L1412.49 7130.51C1412.94 7129.64 1412.94 7128.61 1412.49 7127.74L1367.09 7040.39C1366.57 7039.39 1365.55 7038.77 1364.43 7038.77H1274.45C1273.33 7038.77 1272.31 7039.39 1271.79 7040.39L1226.39 7127.74ZM1080.2 7221.39C1079.75 7222.25 1079.75 7223.29 1080.2 7224.15L1125.6 7311.51C1126.12 7312.5 1127.14 7313.13 1128.26 7313.13H1218.24C1219.36 7313.13 1220.38 7312.5 1220.9 7311.51L1266.3 7224.15C1266.75 7223.29 1266.75 7222.25 1266.3 7221.39L1220.9 7134.03C1220.38 7133.04 1219.36 7132.41 1218.24 7132.41H1128.26C1127.14 7132.41 1126.12 7133.04 1125.6 7134.03L1080.2 7221.39ZM933.716 7127.74C933.265 7128.61 933.265 7129.64 933.716 7130.51L979.115 7217.87C979.631 7218.86 980.657 7219.48 981.777 7219.48H1071.75C1072.87 7219.48 1073.9 7218.86 1074.42 7217.87L1119.81 7130.51C1120.27 7129.64 1120.27 7128.61 1119.81 7127.74L1074.42 7040.39C1073.9 7039.39 1072.87 7038.77 1071.75 7038.77H981.777C980.657 7038.77 979.631 7039.39 979.115 7040.39L933.716 7127.74ZM788.703 7408.49C788.253 7409.36 788.253 7410.39 788.703 7411.25L834.102 7498.61C834.618 7499.61 835.645 7500.23 836.764 7500.23H926.741C927.861 7500.23 928.887 7499.61 929.403 7498.61L974.802 7411.25C975.253 7410.39 975.253 7409.36 974.802 7408.49L929.403 7321.13C928.887 7320.14 927.861 7319.51 926.741 7319.51H836.764C835.645 7319.51 834.618 7320.14 834.102 7321.13L788.703 7408.49ZM788.027 7222.5C788 7222.55 788 7222.62 788.027 7222.67L834.101 7311C834.618 7311.99 835.643 7312.61 836.761 7312.61H926.744C927.862 7312.61 928.887 7311.99 929.404 7311L975.478 7222.67C975.505 7222.62 975.505 7222.55 975.478 7222.5C975.452 7222.45 975.452 7222.39 975.478 7222.34C975.505 7222.29 975.505 7222.23 975.478 7222.17L929.403 7133.52C928.887 7132.52 927.861 7131.9 926.741 7131.9H836.764C835.645 7131.9 834.618 7132.52 834.102 7133.52L788.027 7222.17C788 7222.23 788 7222.29 788.027 7222.34C788.054 7222.39 788.054 7222.45 788.027 7222.5ZM-78.7357 7410.6C-78.7357 7413.74 -74.53 7414.77 -73.077 7411.99L-55.2422 7377.87C-54.7886 7377.01 -54.787 7375.97 -55.2382 7375.1L-78.5842 7330.12C-78.6229 7330.05 -78.7357 7330.08 -78.7357 7330.16V7410.6ZM-78.7346 7314.64C-78.7346 7315.12 -78.619 7315.6 -78.3976 7316.02L-49.7456 7371.26C-49.2297 7372.25 -48.2029 7372.87 -47.0826 7372.87H42.896C44.0139 7372.87 45.0391 7372.25 45.5559 7371.26L91.63 7282.93C91.6569 7282.88 91.6569 7282.81 91.6301 7282.76C91.6034 7282.71 91.6034 7282.65 91.6301 7282.6C91.6569 7282.55 91.6569 7282.49 91.63 7282.43L45.5559 7194.1C45.0391 7193.11 44.0139 7192.49 42.896 7192.49H-47.0826C-48.2029 7192.49 -49.2297 7193.11 -49.7456 7194.11L-78.3976 7249.34C-78.619 7249.77 -78.7346 7250.24 -78.7346 7250.72V7314.64ZM-55.2445 7186.83C-54.7894 7187.7 -54.7894 7188.74 -55.2445 7189.61L-73.0769 7223.72C-74.5299 7226.5 -78.7356 7225.47 -78.7356 7222.33V7154.1C-78.7356 7150.97 -74.5299 7149.93 -73.0769 7152.71L-55.2445 7186.83ZM-78.7346 7127.1C-78.7346 7127.32 -78.6827 7127.53 -78.5833 7127.72L-49.7456 7183.31C-49.2297 7184.31 -48.2029 7184.93 -47.0826 7184.93H42.8929C44.0125 7184.93 45.0387 7184.31 45.5549 7183.32L90.9539 7095.96C91.4045 7095.09 91.4045 7094.06 90.9539 7093.19L45.5549 7005.84C45.0387 7004.84 44.0125 7004.22 42.8929 7004.22H-47.0826C-48.2029 7004.22 -49.2297 7004.84 -49.7456 7005.84L-78.3976 7061.07C-78.619 7061.5 -78.7346 7061.97 -78.7346 7062.45V7127.1ZM51.3444 7186.83C50.8937 7187.7 50.8937 7188.73 51.3444 7189.6L96.7433 7276.96C97.2595 7277.95 98.2858 7278.58 99.4053 7278.58H189.382C190.502 7278.58 191.528 7277.95 192.044 7276.96L237.443 7189.6C237.894 7188.73 237.894 7187.7 237.443 7186.83L192.044 7099.48C191.528 7098.48 190.502 7097.86 189.382 7097.86H99.4053C98.2858 7097.86 97.2595 7098.48 96.7433 7099.48L51.3444 7186.83ZM50.6681 7000.85C50.6414 7000.9 50.6414 7000.96 50.6682 7001.01L96.7423 7089.35C97.2592 7090.34 98.2843 7090.96 99.4022 7090.96H189.385C190.503 7090.96 191.528 7090.34 192.045 7089.35L238.119 7001.01C238.146 7000.96 238.146 7000.9 238.119 7000.85C238.093 7000.8 238.093 7000.74 238.119 7000.69C238.146 7000.63 238.146 7000.57 238.119 7000.52L192.044 6911.86C191.528 6910.87 190.502 6910.25 189.382 6910.25H99.4053C98.2858 6910.25 97.2595 6910.87 96.7433 6911.86L50.6681 7000.52C50.6412 7000.57 50.6414 7000.63 50.6681 7000.69C50.6948 7000.74 50.6948 7000.8 50.6681 7000.85ZM-78.7356 7035.05C-78.7356 7038.18 -74.5299 7039.21 -73.0769 7036.43L-54.5498 7000.99C-54.5299 7000.95 -54.5298 7000.91 -54.5496 7000.87L-78.5846 6954.57C-78.6232 6954.49 -78.7356 6954.52 -78.7356 6954.6V7035.05ZM980.68 7023.99C979.56 7023.99 978.534 7023.37 978.018 7022.38L932.619 6935.02C932.168 6934.15 932.168 6933.12 932.619 6932.25L978.018 6844.9C978.534 6843.9 979.56 6843.28 980.68 6843.28H1070.66C1071.78 6843.28 1072.8 6843.9 1073.32 6844.9L1118.72 6932.25C1119.17 6933.12 1119.17 6934.15 1118.72 6935.02L1073.32 7022.38C1072.8 7023.37 1071.78 7023.99 1070.66 7023.99H980.68ZM395.555 7023.51C394.437 7023.51 393.412 7022.89 392.895 7021.9L347.5 6934.87C347.047 6934 347.047 6932.96 347.498 6932.1L392.896 6844.74C393.412 6843.75 394.438 6843.13 395.558 6843.13H485.538C486.656 6843.13 487.681 6843.75 488.198 6844.74L534.272 6933.07C534.298 6933.12 534.299 6933.18 534.272 6933.24C534.245 6933.29 534.245 6933.35 534.272 6933.4C534.299 6933.45 534.298 6933.51 534.272 6933.56L488.198 7021.9C487.681 7022.89 486.656 7023.51 485.538 7023.51H395.555ZM1216.85 6930.35C1217.96 6930.35 1218.99 6929.73 1219.51 6928.73L1264.91 6841.38C1265.36 6840.51 1265.36 6839.48 1264.91 6838.61L1219.51 6751.25C1218.99 6750.26 1217.96 6749.64 1216.85 6749.64H1126.87C1125.75 6749.64 1124.72 6750.26 1124.21 6751.25L1078.81 6838.61C1078.36 6839.48 1078.36 6840.51 1078.81 6841.38L1124.21 6928.73C1124.72 6929.73 1125.75 6930.35 1126.87 6930.35H1216.85ZM1126.86 6742.74C1125.75 6742.74 1124.72 6742.12 1124.21 6741.12L1078.81 6654.09C1078.36 6653.23 1078.36 6652.19 1078.81 6651.32L1124.21 6563.97C1124.72 6562.97 1125.75 6562.35 1126.87 6562.35H1216.85C1217.97 6562.35 1218.99 6562.97 1219.51 6563.96L1265.58 6652.3C1265.61 6652.35 1265.61 6652.41 1265.58 6652.46C1265.56 6652.51 1265.56 6652.57 1265.58 6652.63C1265.61 6652.68 1265.61 6652.74 1265.58 6652.79L1219.51 6741.12C1218.99 6742.12 1217.97 6742.74 1216.85 6742.74H1126.86ZM542.569 6930.35C541.45 6930.35 540.424 6929.73 539.907 6928.73L494.509 6841.38C494.058 6840.51 494.058 6839.48 494.509 6838.61L539.907 6751.25C540.424 6750.26 541.45 6749.64 542.569 6749.64H632.546C633.666 6749.64 634.692 6750.26 635.208 6751.25L680.607 6838.61C681.058 6839.48 681.058 6840.51 680.607 6841.38L635.208 6928.73C634.692 6929.73 633.666 6930.35 632.546 6930.35H542.569ZM542.566 6742.74C541.448 6742.74 540.423 6742.12 539.906 6741.12L494.512 6654.09C494.059 6653.23 494.058 6652.19 494.51 6651.32L539.907 6563.97C540.424 6562.97 541.45 6562.35 542.569 6562.35H632.549C633.667 6562.35 634.692 6562.97 635.209 6563.96L681.283 6652.3C681.31 6652.35 681.31 6652.41 681.283 6652.46C681.257 6652.51 681.257 6652.57 681.283 6652.63C681.31 6652.68 681.31 6652.74 681.283 6652.79L635.209 6741.12C634.692 6742.12 633.667 6742.74 632.549 6742.74H542.566ZM980.677 6836.38C979.559 6836.38 978.534 6835.76 978.017 6834.77L932.622 6747.74C932.169 6746.87 932.169 6745.83 932.62 6744.97L978.018 6657.61C978.534 6656.62 979.56 6655.99 980.68 6655.99H1070.66C1071.78 6655.99 1072.8 6656.62 1073.32 6657.61L1118.72 6744.97C1119.17 6745.83 1119.17 6746.87 1118.71 6747.74L1073.32 6834.77C1072.8 6835.76 1071.78 6836.38 1070.66 6836.38H980.677ZM834.194 6930.35C833.074 6930.35 832.048 6929.73 831.532 6928.73L786.133 6841.38C785.682 6840.51 785.682 6839.48 786.133 6838.61L831.532 6751.25C832.048 6750.26 833.074 6749.64 834.194 6749.64H924.171C925.29 6749.64 926.317 6750.26 926.833 6751.25L972.232 6838.61C972.682 6839.48 972.682 6840.51 972.232 6841.38L926.833 6928.73C926.317 6929.73 925.29 6930.35 924.171 6930.35H834.194ZM834.191 6742.74C833.073 6742.74 832.048 6742.12 831.531 6741.12L785.457 6652.79C785.43 6652.74 785.43 6652.68 785.457 6652.63C785.483 6652.57 785.483 6652.51 785.457 6652.46C785.43 6652.41 785.43 6652.35 785.457 6652.3L831.532 6563.64C832.048 6562.65 833.074 6562.02 834.194 6562.02H924.171C925.29 6562.02 926.317 6562.65 926.833 6563.64L972.908 6652.3C972.935 6652.35 972.935 6652.41 972.908 6652.46C972.881 6652.51 972.881 6652.57 972.908 6652.63C972.935 6652.68 972.935 6652.74 972.908 6652.79L926.834 6741.12C926.317 6742.12 925.292 6742.74 924.174 6742.74H834.191ZM688.007 7023.99C686.887 7023.99 685.861 7023.37 685.345 7022.38L639.946 6935.02C639.495 6934.15 639.495 6933.12 639.946 6932.25L685.345 6844.9C685.861 6843.9 686.887 6843.28 688.007 6843.28H777.984C779.103 6843.28 780.13 6843.9 780.646 6844.9L826.045 6932.25C826.495 6933.12 826.495 6934.15 826.045 6935.02L780.646 7022.38C780.13 7023.37 779.103 7023.99 777.984 7023.99H688.007ZM980.68 6648.44C979.56 6648.44 978.534 6647.81 978.018 6646.82L932.619 6559.46C932.168 6558.6 932.168 6557.56 932.619 6556.7L978.018 6469.34C978.534 6468.35 979.56 6467.72 980.68 6467.72H1070.66C1071.78 6467.72 1072.8 6468.35 1073.32 6469.34L1118.72 6556.7C1119.17 6557.56 1119.17 6558.6 1118.72 6559.46L1073.32 6646.82C1072.8 6647.81 1071.78 6648.44 1070.66 6648.44H980.68ZM689.181 6835.54C688.061 6835.54 687.035 6834.92 686.519 6833.92L641.12 6746.57C640.669 6745.7 640.669 6744.67 641.12 6743.8L686.519 6656.44C687.035 6655.45 688.061 6654.83 689.181 6654.83H779.158C780.277 6654.83 781.303 6655.45 781.82 6656.44L827.219 6743.8C827.669 6744.67 827.669 6745.7 827.219 6746.57L781.82 6833.92C781.303 6834.92 780.277 6835.54 779.158 6835.54H689.181ZM689.177 6647.92C688.059 6647.92 687.034 6647.3 686.517 6646.31L640.443 6557.98C640.416 6557.93 640.416 6557.87 640.443 6557.81C640.47 6557.76 640.47 6557.7 640.443 6557.65C640.416 6557.6 640.416 6557.54 640.443 6557.49L686.518 6468.83C687.034 6467.83 688.061 6467.21 689.18 6467.21H779.157C780.277 6467.21 781.303 6467.83 781.819 6468.83L827.894 6557.49C827.921 6557.54 827.921 6557.6 827.894 6557.65C827.868 6557.7 827.868 6557.76 827.894 6557.81C827.921 6557.87 827.921 6557.93 827.894 6557.98L781.82 6646.31C781.303 6647.3 780.278 6647.92 779.16 6647.92H689.177Z" fill="url(#paint8_linear)"/>
<path opacity="0.04" fill-rule="evenodd" clip-rule="evenodd" d="M-128.92 6686.5L-106.135 6642.91V6642.91L-128.92 6599.02V6599.33V6686.5ZM-128.92 6585.41L-100.856 6639.51H-12.7727L31.4077 6554.81L31.3274 6554.65L31.4077 6554.5L-12.7727 6469.8H-100.856L-128.92 6523.9V6585.41ZM-106.135 6465.78L-128.92 6509.37V6422.19L-106.135 6465.78ZM-128.92 6408.59L-100.856 6462.69H-12.7727L31.4077 6377.68L-12.7727 6292.66H-100.856L-128.92 6346.76V6408.28V6408.59ZM-7.21126 6465.78L36.9691 6550.79H125.052L169.232 6465.78L125.052 6380.77H36.9691L-7.21126 6465.78ZM-128.92 6333.16L-106.135 6289.57L-106.156 6289.53L-128.92 6245.68V6245.98V6333.16Z" fill="url(#paint9_linear)"/>
<path opacity="0.04" fill-rule="evenodd" clip-rule="evenodd" d="M469.136 5760.22L469.386 5759.76H565.771L565.773 5759.76L566.029 5760.23L609.899 5840.61L563.739 5925.46L563.45 5925.46H471.42L425.26 5840.61L469.136 5760.22ZM851.151 5925.46L851.149 5925.47H759.12L712.959 5840.61L756.661 5760.54L757.086 5759.76H853.47L853.472 5759.76L897.598 5840.61L851.438 5925.46H851.151ZM178.201 6105.36L132.041 6020.81H40.0117L6.04492 6083.15V6127.89L40.0117 6190.22H132.041L178.201 6105.36ZM322.199 6017.42L276.039 5932.56H184.01L137.85 6017.42L184.01 6102.28H276.039L322.199 6017.42ZM322.199 6193.31L276.039 6108.76H184.01L137.85 6193.31L137.934 6193.46L137.85 6193.62L184.01 6278.17H276.039L322.199 6193.31ZM896.568 6017.42L850.408 5932.56H758.378L712.218 6017.42L758.378 6102.28H850.408L896.568 6017.42ZM896.568 6193.31L850.408 6108.76H758.378L712.218 6193.31L712.302 6193.46L712.218 6193.62L758.378 6278.17H850.408L896.568 6193.31ZM1041.08 5929.62L994.922 5845.07H902.892L856.732 5929.62L856.816 5929.78L856.732 5929.93L902.892 6014.48H994.922L1041.08 5929.62ZM465.903 5929.48L419.743 5844.62H327.714L281.554 5929.48L327.714 6014.33H419.743L465.903 5929.48ZM465.903 6105.36L419.743 6020.81H327.714L281.554 6105.36L327.714 6190.22H419.743L465.903 6105.36ZM609.9 6017.42L563.74 5932.56H471.71L425.55 6017.42L471.71 6102.28H563.74L609.9 6017.42ZM609.9 6193.31L563.74 6108.76H471.71L425.55 6193.31L425.634 6193.46L425.55 6193.62L471.71 6278.48H563.74L609.9 6193.62L609.816 6193.46L609.9 6193.31ZM753.603 5929.48L707.443 5844.62H615.413L569.253 5929.48L615.413 6014.33H707.443L753.603 5929.48ZM178.201 6282.18L132.041 6197.32H40.0117L6.04492 6259.65V6304.4L40.0117 6367.04H132.041L178.201 6282.18ZM322.199 6370.12L276.039 6285.26H184.01L137.85 6370.12L184.01 6454.98H276.039L322.199 6370.12ZM465.903 6282.18L419.743 6197.32H327.714L281.554 6282.18L327.714 6367.04H419.743L465.903 6282.18ZM752.449 6106.46L706.289 6021.6H614.259L568.099 6106.46L614.259 6191.32H706.289L752.449 6106.46ZM752.448 6282.35L706.288 6197.8H614.259L568.099 6282.35L568.183 6282.51L568.099 6282.66L614.259 6367.52H706.288L752.448 6282.66L752.365 6282.51L752.448 6282.35Z" fill="url(#paint10_linear)"/>
<defs>
<linearGradient id="paint0_linear" x1="1431.7" y1="1870.79" x2="511.231" y2="3316.15" gradientUnits="userSpaceOnUse">
<stop stop-color="#0B63F6"/>
<stop offset="1" stop-color="#003CC5"/>
</linearGradient>
<linearGradient id="paint1_linear" x1="1615.68" y1="2019.55" x2="333.525" y2="430.302" gradientUnits="userSpaceOnUse">
<stop stop-color="#0B63F6"/>
<stop offset="1" stop-color="#003CC5"/>
</linearGradient>
<linearGradient id="paint2_linear" x1="237.738" y1="927.014" x2="-171.406" y2="650.29" gradientUnits="userSpaceOnUse">
<stop stop-color="#0B63F6"/>
<stop offset="1" stop-color="#003CC5"/>
</linearGradient>
<linearGradient id="paint3_linear" x1="74.5508" y1="0.269531" x2="718.136" y2="958.428" gradientUnits="userSpaceOnUse">
<stop stop-color="#0B63F6"/>
<stop offset="1" stop-color="#003CC5"/>
</linearGradient>
<linearGradient id="paint4_linear" x1="1437.88" y1="5797.46" x2="517.415" y2="4352.1" gradientUnits="userSpaceOnUse">
<stop stop-color="#0B63F6"/>
<stop offset="1" stop-color="#003CC5"/>
</linearGradient>
<linearGradient id="paint5_linear" x1="1621.87" y1="4930.45" x2="339.706" y2="3341.19" gradientUnits="userSpaceOnUse">
<stop stop-color="#0B63F6"/>
<stop offset="1" stop-color="#003CC5"/>
</linearGradient>
<linearGradient id="paint6_linear" x1="-289.344" y1="2911.16" x2="354.242" y2="3869.32" gradientUnits="userSpaceOnUse">
<stop stop-color="#0B63F6"/>
<stop offset="1" stop-color="#003CC5"/>
</linearGradient>
<linearGradient id="paint7_linear" x1="1363.31" y1="7630.28" x2="442.838" y2="9075.64" gradientUnits="userSpaceOnUse">
<stop stop-color="#0B63F6"/>
<stop offset="1" stop-color="#003CC5"/>
</linearGradient>
<linearGradient id="paint8_linear" x1="1547.29" y1="7779.04" x2="265.132" y2="6189.79" gradientUnits="userSpaceOnUse">
<stop stop-color="#0B63F6"/>
<stop offset="1" stop-color="#003CC5"/>
</linearGradient>
<linearGradient id="paint9_linear" x1="169.232" y1="6686.5" x2="-239.911" y2="6409.78" gradientUnits="userSpaceOnUse">
<stop stop-color="#0B63F6"/>
<stop offset="1" stop-color="#003CC5"/>
</linearGradient>
<linearGradient id="paint10_linear" x1="6.04492" y1="5759.76" x2="649.63" y2="6717.92" gradientUnits="userSpaceOnUse">
<stop stop-color="#0B63F6"/>
<stop offset="1" stop-color="#003CC5"/>
</linearGradient>
</defs>
</svg>
