<svg width="20" height="18" viewBox="0 0 20 18" fill="none" xmlns="http://www.w3.org/2000/svg">
<path d="M9.875 1.45312L0.875 17.0414H18.875L9.875 1.45312ZM9.875 2.27146L18.1664 16.6324H1.58362L9.875 2.27146Z" fill="url(#paint0_linear)" stroke="url(#paint1_linear)"/>
<path d="M10.58 14.7428C10.5802 14.6569 10.5634 14.5718 10.5307 14.4924C10.4979 14.4129 10.4498 14.3408 10.3891 14.28C10.3285 14.2192 10.2564 14.1709 10.177 14.138C10.0977 14.1051 10.0126 14.0881 9.92671 14.0881C9.8408 14.0881 9.75574 14.1051 9.67639 14.138C9.59703 14.1709 9.52495 14.2192 9.46427 14.28C9.40359 14.3408 9.3555 14.4129 9.32276 14.4924C9.29001 14.5718 9.27325 14.6569 9.27344 14.7428C9.27325 14.8287 9.29001 14.9138 9.32276 14.9932C9.3555 15.0727 9.40359 15.1449 9.46427 15.2057C9.52495 15.2665 9.59703 15.3147 9.67639 15.3477C9.75574 15.3806 9.8408 15.3975 9.92671 15.3975C10.0126 15.3975 10.0977 15.3806 10.177 15.3477C10.2564 15.3147 10.3285 15.2665 10.3891 15.2057C10.4498 15.1449 10.4979 15.0727 10.5307 14.9932C10.5634 14.9138 10.5802 14.8287 10.58 14.7428Z" fill="url(#paint2_linear)"/>
<path d="M9.27344 6.72877V12.4491C9.27381 12.6222 9.34281 12.7879 9.46528 12.9101C9.58775 13.0324 9.7537 13.101 9.92671 13.101C10.0997 13.101 10.2657 13.0324 10.3881 12.9101C10.5106 12.7879 10.5796 12.6222 10.58 12.4491V6.72877C10.5796 6.55576 10.5106 6.38993 10.3881 6.26772C10.2657 6.14552 10.0997 6.0769 9.92671 6.0769C9.7537 6.0769 9.58775 6.14552 9.46528 6.26772C9.34281 6.38993 9.27381 6.55576 9.27344 6.72877Z" fill="url(#paint3_linear)"/>
<defs>
<linearGradient id="paint0_linear" x1="0.875" y1="1.45312" x2="16.3034" y2="19.2685" gradientUnits="userSpaceOnUse">
<stop stop-color="#FFC200"/>
<stop offset="1" stop-color="#FF785E"/>
</linearGradient>
<linearGradient id="paint1_linear" x1="0.875" y1="1.45312" x2="16.3034" y2="19.2685" gradientUnits="userSpaceOnUse">
<stop stop-color="#FFC200"/>
<stop offset="1" stop-color="#FF785E"/>
</linearGradient>
<linearGradient id="paint2_linear" x1="9.27344" y1="14.0881" x2="10.5828" y2="15.3947" gradientUnits="userSpaceOnUse">
<stop stop-color="#FFC200"/>
<stop offset="1" stop-color="#FF785E"/>
</linearGradient>
<linearGradient id="paint3_linear" x1="9.27344" y1="6.0769" x2="11.7991" y2="6.5467" gradientUnits="userSpaceOnUse">
<stop stop-color="#FFC200"/>
<stop offset="1" stop-color="#FF785E"/>
</linearGradient>
</defs>
</svg>
