<?xml version="1.0" encoding="UTF-8"?> <svg xmlns="http://www.w3.org/2000/svg" xmlns:xlink="http://www.w3.org/1999/xlink" viewBox="0 0 374.4 52.04"><defs><linearGradient id="Blue_05" y1="26.38" x2="32.62" y2="26.38" gradientUnits="userSpaceOnUse"><stop offset="0" stop-color="#030844"></stop><stop offset="0.19" stop-color="#293881"></stop><stop offset="0.26" stop-color="#1736a9"></stop><stop offset="0.31" stop-color="#2643c5"></stop><stop offset="0.39" stop-color="#435cfa"></stop><stop offset="0.4" stop-color="#435cfa"></stop><stop offset="0.51" stop-color="#1038bd"></stop><stop offset="0.59" stop-color="#143098"></stop><stop offset="0.77" stop-color="#1d2663"></stop><stop offset="1" stop-color="#03043b"></stop></linearGradient><linearGradient id="Blue_05-2" x1="24.67" y1="26.38" x2="57.29" y2="26.38" xlink:href="#Blue_05"></linearGradient><linearGradient id="Blue_05-3" x1="53.78" y1="26.38" x2="84.61" y2="26.38" xlink:href="#Blue_05"></linearGradient><linearGradient id="Blue_05-4" x1="73.02" y1="26.38" x2="104.06" y2="26.38" xlink:href="#Blue_05"></linearGradient><linearGradient id="Blue_05-5" x1="94.22" y1="26.38" x2="130.12" y2="26.38" xlink:href="#Blue_05"></linearGradient><linearGradient id="Blue_05-6" x1="122.18" y1="26.38" x2="152.89" y2="26.38" xlink:href="#Blue_05"></linearGradient><linearGradient id="Blue_05-7" x1="152.89" y1="26.38" x2="180.46" y2="26.38" xlink:href="#Blue_05"></linearGradient><linearGradient id="Blue_05-8" x1="211.9" y1="26.38" x2="242.62" y2="26.38" xlink:href="#Blue_05"></linearGradient><linearGradient id="Blue_05-9" x1="237.58" y1="26.38" x2="268.29" y2="26.38" xlink:href="#Blue_05"></linearGradient><linearGradient id="Blue_05-10" x1="261.34" y1="26.38" x2="297.24" y2="26.38" xlink:href="#Blue_05"></linearGradient><linearGradient id="Blue_05-11" x1="291.31" y1="26.38" x2="322.02" y2="26.38" xlink:href="#Blue_05"></linearGradient><linearGradient id="Blue_05-12" x1="315.08" y1="26.38" x2="346.11" y2="26.38" xlink:href="#Blue_05"></linearGradient><linearGradient id="Blue_05-13" x1="337.28" y1="26.38" x2="357.92" y2="26.38" xlink:href="#Blue_05"></linearGradient><linearGradient id="Blue_05-14" x1="349.08" y1="26.38" x2="369.72" y2="26.38" xlink:href="#Blue_05"></linearGradient><radialGradient id="Безымянный_градиент_39" cx="187.2" cy="15.98" r="134.67" gradientTransform="translate(0 14.16) scale(1 0.74)" gradientUnits="userSpaceOnUse"><stop offset="0" stop-color="#ba7802"></stop><stop offset="0.18" stop-color="#d19b2d"></stop><stop offset="0.39" stop-color="#ebc15d"></stop><stop offset="0.5" stop-color="#f5d06f"></stop><stop offset="0.61" stop-color="#ebc15d"></stop><stop offset="0.82" stop-color="#d19b2d"></stop><stop offset="1" stop-color="#ba7802"></stop></radialGradient></defs><title>1Ресурс 8-10</title><g id="Слой_2" data-name="Слой 2"><g id="Слой_1-2" data-name="Слой 1"><g id="conseil"><path d="M6.93,43.84H0l11.42-29.1a8.65,8.65,0,0,1,3.67-4.14,10.38,10.38,0,0,1,5.55-1.68h6.93A5.16,5.16,0,0,1,31.8,10.6a3.89,3.89,0,0,1,.42,4.14L20.8,43.84H13.87L18.44,32.2H11.5ZM20.72,26.38l4-10.25a.89.89,0,0,0-.13-1,1.31,1.31,0,0,0-1.06-.41H20.09a2.62,2.62,0,0,0-1.38.41,2,2,0,0,0-.9,1l-4,10.25Z" style="fill:url(#Blue_05)"></path><path d="M56.89,14.74,47.76,38a8.67,8.67,0,0,1-3.66,4.1,10.23,10.23,0,0,1-5.56,1.72H24.67L38.38,8.92H52.24a5.16,5.16,0,0,1,4.23,1.68A3.89,3.89,0,0,1,56.89,14.74ZM43,14.74,33.89,38h5.2a2.53,2.53,0,0,0,1.39-.44,2.23,2.23,0,0,0,.94-1.07l8-20.38a.89.89,0,0,0-.13-1,1.3,1.3,0,0,0-1.05-.41Z" style="fill:url(#Blue_05-2)"></path><path d="M65.78,43.84h-12L62.35,8.92h7l-7,28.17L77.61,8.92h7Z" style="fill:url(#Blue_05-3)"></path><path d="M86.72,8.92h17.34l-2.29,5.82H91.37L88,23.47h8.32L94,29.29H85.66L82.24,38h10.4l-2.29,5.82H73Z" style="fill:url(#Blue_05-4)"></path><path d="M109.41,43.84l-.76-19.09-7.49,19.09H94.22L107.93,8.92h7.42l.77,18,7.06-18h6.94L116.41,43.84Z" style="fill:url(#Blue_05-5)"></path><path d="M138.4,33a1.59,1.59,0,0,0-.39-1.66,6.59,6.59,0,0,0-2-1.52,19.94,19.94,0,0,1-2.66-1.71,19.74,19.74,0,0,1-2.47-2.19,5.46,5.46,0,0,1-1.39-3,7.82,7.82,0,0,1,.58-4.14l1.6-4.07a8.65,8.65,0,0,1,3.67-4.14,10.38,10.38,0,0,1,5.55-1.68h6.93a5.16,5.16,0,0,1,4.23,1.68,3.89,3.89,0,0,1,.42,4.14L151,18.64H144l1-2.51a.89.89,0,0,0-.13-1,1.31,1.31,0,0,0-1.06-.41h-3.46a2.59,2.59,0,0,0-1.38.41,2.12,2.12,0,0,0-.91,1l-1,2.68a2.63,2.63,0,0,0,.35,2.71A9.21,9.21,0,0,0,140,23.79c1.1.68,2.18,1.4,3.25,2.15a6.54,6.54,0,0,1,2.31,2.94,5.57,5.57,0,0,1-.2,4.14l-2,5a8.72,8.72,0,0,1-3.66,4.1,10.26,10.26,0,0,1-5.56,1.72h-6.94A5,5,0,0,1,123,42.12a3.88,3.88,0,0,1-.44-4.1l2-5h6.93l-1.37,3.49a1,1,0,0,0,.1,1.07,1.23,1.23,0,0,0,1,.44h3.47a2.5,2.5,0,0,0,1.38-.44,2.26,2.26,0,0,0,.95-1.07Z" style="fill:url(#Blue_05-6)"></path><path d="M180.46,8.92l-5.71,14.55a8.67,8.67,0,0,1-3.66,4.1,10.23,10.23,0,0,1-5.56,1.72l-5.71,14.55h-6.93l5.71-14.55a5.05,5.05,0,0,1-4.22-1.72,3.88,3.88,0,0,1-.43-4.1l5.71-14.55h6.93l-5.12,13a1,1,0,0,0,.1,1.07,1.25,1.25,0,0,0,1,.44h3.47a2.64,2.64,0,0,0,1.39-.44,2.28,2.28,0,0,0,.94-1.07l5.11-13Z" style="fill:url(#Blue_05-7)"></path><path d="M234.23,35.11,233.09,38a8.72,8.72,0,0,1-3.66,4.1,10.26,10.26,0,0,1-5.56,1.72h-6.94a5,5,0,0,1-4.21-1.72,3.88,3.88,0,0,1-.44-4.1l9.14-23.28a8.65,8.65,0,0,1,3.67-4.14,10.38,10.38,0,0,1,5.55-1.68h6.93a5.16,5.16,0,0,1,4.23,1.68,3.89,3.89,0,0,1,.42,4.14l-1.14,2.91h-6.93l.59-1.52a.89.89,0,0,0-.13-1,1.31,1.31,0,0,0-1.06-.41h-3.46a2.62,2.62,0,0,0-1.38.41,2,2,0,0,0-.9,1l-8,20.38a1,1,0,0,0,.1,1.07,1.23,1.23,0,0,0,1,.44h3.47a2.5,2.5,0,0,0,1.38-.44,2.26,2.26,0,0,0,.95-1.07l.54-1.4Z" style="fill:url(#Blue_05-8)"></path><path d="M263.24,8.92a5.16,5.16,0,0,1,4.23,1.68,3.89,3.89,0,0,1,.42,4.14L258.76,38a8.67,8.67,0,0,1-3.66,4.1,10.23,10.23,0,0,1-5.56,1.72h-6.93a5.05,5.05,0,0,1-4.22-1.72A3.88,3.88,0,0,1,238,38l9.13-23.28a8.65,8.65,0,0,1,3.67-4.14,10.38,10.38,0,0,1,5.55-1.68Zm-2.83,7.21a.89.89,0,0,0-.13-1,1.3,1.3,0,0,0-1-.41h-3.47a2.56,2.56,0,0,0-1.37.41,2,2,0,0,0-.91,1l-8,20.38a1,1,0,0,0,.1,1.07,1.23,1.23,0,0,0,1,.44h3.47a2.53,2.53,0,0,0,1.39-.44,2.23,2.23,0,0,0,.94-1.07Z" style="fill:url(#Blue_05-9)"></path><path d="M276.53,43.84l-.76-19.09-7.49,19.09h-6.94L275.05,8.92h7.42l.78,18,7.05-18h6.94l-13.7,34.92Z" style="fill:url(#Blue_05-10)"></path><path d="M307.52,33a1.59,1.59,0,0,0-.39-1.66,6.46,6.46,0,0,0-2-1.52,20.6,20.6,0,0,1-2.66-1.71A19.74,19.74,0,0,1,300,25.94a5.53,5.53,0,0,1-1.39-3,7.93,7.93,0,0,1,.58-4.14l1.6-4.07a8.65,8.65,0,0,1,3.67-4.14A10.38,10.38,0,0,1,310,8.92H317a5.16,5.16,0,0,1,4.23,1.68,3.91,3.91,0,0,1,.43,4.14l-1.54,3.9h-6.93l1-2.51a.89.89,0,0,0-.13-1,1.3,1.3,0,0,0-1.05-.41h-3.47a2.56,2.56,0,0,0-1.37.41,2,2,0,0,0-.91,1l-1,2.68a2.66,2.66,0,0,0,.36,2.71,9.3,9.3,0,0,0,2.57,2.27c1.1.68,2.18,1.4,3.25,2.15a6.41,6.41,0,0,1,2.31,2.94,5.52,5.52,0,0,1-.2,4.14l-2,5a8.67,8.67,0,0,1-3.66,4.1,10.23,10.23,0,0,1-5.56,1.72h-6.93a5.07,5.07,0,0,1-4.22-1.72,3.88,3.88,0,0,1-.43-4.1l2-5h6.93l-1.37,3.49a1,1,0,0,0,.1,1.07,1.23,1.23,0,0,0,1,.44h3.47a2.53,2.53,0,0,0,1.39-.44,2.23,2.23,0,0,0,.94-1.07Z" style="fill:url(#Blue_05-11)"></path><path d="M328.78,8.92h17.33l-2.28,5.82h-10.4L330,23.47h8.33L336,29.29h-8.32L324.29,38H334.7l-2.29,5.82H315.08Z" style="fill:url(#Blue_05-12)"></path><path d="M337.28,43.84,351,8.92h6.94L344.21,43.84Z" style="fill:url(#Blue_05-13)"></path><path d="M362.79,8.92h6.93L358.3,38h10.4l-2.28,5.82H349.08Z" style="fill:url(#Blue_05-14)"></path><path d="M205.66,0h-7.22a8.29,8.29,0,0,0-5.35,2.5,12.6,12.6,0,0,0-3.67,6.16l-1.6,6.07a16.92,16.92,0,0,0-.58,6.16,10.34,10.34,0,0,0,1.39,4.47,25.8,25.8,0,0,0,2.47,3.25,21.47,21.47,0,0,0,2.66,2.56,7.72,7.72,0,0,1,2,2.25,3.25,3.25,0,0,1,.39,2.47l-.6,2.29a4.37,4.37,0,0,1-.12.49l-.06.19-.13.39-1,2.89-.36,1.11-.54,1.62a5.45,5.45,0,0,1-2.84,3H0V52H191.87a8.15,8.15,0,0,0,5.56-2.55,12.8,12.8,0,0,0,3.66-6.12l2-7.46a11.92,11.92,0,0,0,.2-6.15,10,10,0,0,0-2.31-4.38q-1.6-1.7-3.25-3.21a11.66,11.66,0,0,1-2.58-3.38,5.56,5.56,0,0,1-.55-2.6l2-7s0-.05,0-.07l0-.11.78-2.36A4,4,0,0,1,198.46,5a5.62,5.62,0,0,1,1-.78H374.4V0Z" style="fill:url(#Безымянный_градиент_39)"></path></g></g></g></svg> 