<svg width="1302" height="1180" viewBox="0 0 1302 1180" fill="none" xmlns="http://www.w3.org/2000/svg">
<path opacity="0.03" fill-rule="evenodd" clip-rule="evenodd" d="M906.864 1.16462L906.669 0.850342H792.288L792.287 0.850363L792.086 1.17295L739.922 84.4543L794.7 172.207L795.043 172.207L903.913 172.207L904.256 172.207L959.034 84.4543L906.864 1.16462ZM453.627 172.207L453.628 172.208H562.84L617.619 84.4556L565.781 1.69671L565.255 0.850342H450.874L450.872 0.851721L450.606 1.27894L398.507 84.4543L453.286 172.207H453.627ZM1081.34 267.298L1136.12 179.546H1245.33L1300.11 267.298L1245.33 355.05H1136.12L1081.34 267.298ZM1081.34 449.184L1136.12 361.751H1245.33L1300.11 449.184L1300.01 449.344L1300.11 449.503L1245.33 536.937H1136.12L1081.34 449.184ZM399.731 267.298L454.509 179.546H563.722L618.5 267.298L563.722 355.05H454.509L399.731 267.298ZM399.731 449.184L454.509 361.751H563.722L618.5 449.184L618.401 449.344L618.5 449.503L563.722 536.937H454.509L399.731 449.184ZM228.235 176.506L283.014 89.0725H392.227L447.005 176.506L446.905 176.665L447.005 176.825L392.227 264.258H283.014L228.235 176.506ZM910.805 176.354L965.583 88.6023H1074.8L1129.57 176.354L1074.8 264.107H965.583L910.805 176.354ZM910.805 358.24L965.583 270.807H1074.8L1129.57 358.24L1074.8 445.993H965.583L910.805 358.24ZM739.922 267.298L794.701 179.546H903.913L958.692 267.298L903.913 355.05H794.701L739.922 267.298ZM739.922 449.184L794.701 361.751H903.913L958.692 449.184L958.592 449.344L958.692 449.503L903.913 537.256H794.701L739.922 449.503L740.022 449.344L739.922 449.184ZM569.389 176.354L624.168 88.6023H733.38L788.159 176.354L733.38 264.107H624.168L569.389 176.354ZM1081.34 632.027L1136.12 544.275H1245.33L1300.11 632.027L1245.33 719.779H1136.12L1081.34 632.027ZM910.805 541.084L965.583 453.333H1074.8L1129.57 541.084L1074.8 628.836H965.583L910.805 541.084ZM739.922 632.027L794.701 544.275H903.913L958.692 632.027L903.913 719.779H794.701L739.922 632.027ZM570.758 359.377L625.537 271.625H734.75L789.528 359.377L734.75 447.129H625.537L570.758 359.377ZM570.758 541.263L625.537 453.83H734.75L789.528 541.263L789.429 541.423L789.528 541.582L734.75 629.334H625.537L570.758 541.582L570.858 541.423L570.758 541.263ZM219.301 479.521L164.522 391.769H55.3098L0.53125 479.521L55.3098 567.273H164.522L219.301 479.521ZM0.53125 661.407L55.3098 573.974H164.522L219.301 661.407L219.201 661.567L219.301 661.726L164.522 749.478H55.3098L0.53125 661.726L0.630859 661.567L0.53125 661.407ZM966.7 639.009L911.922 726.761L966.7 814.513H1075.91L1130.69 726.761L1075.91 639.009H966.7ZM284.13 639.479L229.352 726.912L284.13 814.664H393.343L448.121 727.231L448.021 727.072L448.121 726.912L393.343 639.479H284.13ZM1246.45 729.953L1301.23 817.705L1246.45 905.457H1137.24L1082.46 817.705L1137.24 729.953H1246.45ZM1137.24 912.159L1082.46 999.591L1137.24 1087.34H1246.45L1301.23 999.911L1301.13 999.751L1301.23 999.591L1246.45 912.159H1137.24ZM455.626 729.953L400.848 817.705L455.626 905.457H564.839L619.617 817.705L564.839 729.953H455.626ZM455.626 912.159L400.848 999.591L455.626 1087.34H564.839L619.617 999.911L619.518 999.751L619.617 999.591L564.839 912.159H455.626ZM966.7 821.214L911.922 908.647L966.7 996.399H1075.91L1130.69 908.647L1075.91 821.214H966.7ZM795.818 729.953L741.039 817.705L795.818 905.457H905.03L959.809 817.705L905.03 729.953H795.818ZM795.818 912.159L741.039 999.591L741.139 999.751L741.039 999.911L795.818 1087.66H905.03L959.809 999.911L959.709 999.751L959.809 999.591L905.03 912.159H795.818ZM625.285 639.009L570.506 726.761L625.285 814.513H734.497L789.276 726.761L734.497 639.009H625.285ZM966.7 1003.74L911.922 1091.49L966.7 1179.24H1075.91L1130.69 1091.49L1075.91 1003.74H966.7ZM626.654 822.032L571.875 909.784L626.654 997.536H735.867L790.645 909.784L735.867 822.032H626.654ZM626.654 1004.24L571.875 1091.67L571.975 1091.83L571.875 1091.99L626.654 1179.74H735.866L790.645 1091.99L790.545 1091.83L790.645 1091.67L735.866 1004.24H626.654Z" fill="url(#paint0_linear)"/>
<defs>
<linearGradient id="paint0_linear" x1="1301.23" y1="0.850342" x2="128.011" y2="1295.28" gradientUnits="userSpaceOnUse">
<stop stop-color="#0B63F6"/>
<stop offset="1" stop-color="#003CC5"/>
</linearGradient>
</defs>
</svg>
