<svg width="19" height="19" viewBox="0 0 19 19" fill="none" xmlns="http://www.w3.org/2000/svg">
<g clip-path="url(#clip0)">
<path d="M9.34766 1.58404C10.8429 1.58404 12.3045 2.02743 13.5478 2.85813C14.791 3.68884 15.76 4.86955 16.3322 6.25096C16.9044 7.63236 17.0541 9.15243 16.7624 10.6189C16.4707 12.0854 15.7507 13.4325 14.6934 14.4898C13.6361 15.5471 12.289 16.2671 10.8225 16.5588C9.35604 16.8505 7.83598 16.7008 6.45457 16.1286C5.07316 15.5564 3.89245 14.5874 3.06175 13.3442C2.23105 12.1009 1.78766 10.6393 1.78766 9.14404C1.78766 7.139 2.58416 5.21609 4.00193 3.79832C5.41971 2.38054 7.34262 1.58404 9.34766 1.58404ZM9.34766 0.144043C7.56763 0.144043 5.82757 0.671884 4.34753 1.66082C2.86749 2.64975 1.71393 4.05536 1.03274 5.69989C0.351556 7.34443 0.173326 9.15403 0.520593 10.8999C0.86786 12.6457 1.72503 14.2493 2.9837 15.508C4.24237 16.7667 5.84602 17.6238 7.59185 17.9711C9.33767 18.3184 11.1473 18.1401 12.7918 17.459C14.4363 16.7778 15.842 15.6242 16.8309 14.1442C17.8198 12.6641 18.3477 10.9241 18.3477 9.14404C18.3477 6.75709 17.3994 4.46791 15.7116 2.78008C14.0238 1.09225 11.7346 0.144043 9.34766 0.144043V0.144043Z" fill="url(#paint0_linear)"/>
<path d="M9.42976 4.37408L9.62416 4.39208C10.1055 4.42245 10.5766 4.54465 11.012 4.75208C11.4009 4.93112 11.7324 5.21466 11.9696 5.57108C12.1502 5.85181 12.2619 6.17133 12.2954 6.50348C12.333 6.79072 12.3097 7.08265 12.227 7.36028C12.1242 7.69154 11.9455 7.9942 11.705 8.24408C11.4298 8.51948 11.1284 8.76727 10.805 8.98388C10.625 9.10808 10.4648 9.23768 10.2956 9.36728C10.1425 9.49382 10.0273 9.66011 9.96256 9.84788C9.92656 9.94508 9.88516 10.0423 9.84736 10.1395C9.80096 10.2688 9.71603 10.3807 9.60402 10.4602C9.49201 10.5397 9.35831 10.5829 9.22096 10.5841C9.06545 10.6011 8.90822 10.5763 8.76556 10.5121C8.65756 10.4593 8.56397 10.3811 8.4928 10.2843C8.42164 10.1874 8.37503 10.0747 8.35696 9.95588C8.32856 9.79047 8.33302 9.62109 8.37008 9.4574C8.40714 9.29371 8.47608 9.13893 8.57296 9.00188C8.72873 8.77418 8.91948 8.57249 9.13816 8.40428C9.37396 8.21168 9.61696 8.02808 9.85816 7.83548C10.0583 7.68228 10.226 7.49075 10.3514 7.27208C10.4487 7.08655 10.4887 6.87625 10.4663 6.66792C10.4439 6.45959 10.36 6.26263 10.2254 6.10208C10.0826 5.94647 9.89304 5.84158 9.68536 5.80328C9.40886 5.73874 9.12068 5.74368 8.84656 5.81768C8.70597 5.85608 8.57524 5.92414 8.46316 6.01728C8.35107 6.11043 8.26024 6.2265 8.19676 6.35768C8.11216 6.51608 8.03836 6.67808 7.95916 6.83828C7.90107 6.95943 7.82252 7.06964 7.72696 7.16408C7.64412 7.23685 7.54721 7.29182 7.44224 7.32557C7.33727 7.35932 7.22649 7.37114 7.11676 7.36028C6.98186 7.35677 6.84977 7.32097 6.73156 7.25588C6.62271 7.19958 6.53151 7.11433 6.46799 7.00953C6.40448 6.90473 6.37111 6.78443 6.37156 6.66188C6.36235 6.26436 6.48938 5.87565 6.73156 5.56028C7.01155 5.18181 7.3832 4.88077 7.81156 4.68548C8.13467 4.53213 8.4806 4.43243 8.83576 4.39028L9.03736 4.37048L9.42976 4.37408Z" fill="url(#paint1_linear)"/>
<path d="M9.07289 13.9141C9.01889 13.9033 8.96489 13.8943 8.91269 13.8799C8.67505 13.8177 8.46872 13.67 8.33327 13.465C8.19782 13.2601 8.14277 13.0124 8.17869 12.7694C8.2146 12.5264 8.33895 12.3052 8.52789 12.1482C8.71683 11.9912 8.95706 11.9095 9.20254 11.9187C9.44802 11.9279 9.68146 12.0274 9.85811 12.1981C10.0348 12.3688 10.1422 12.5987 10.1598 12.8437C10.1774 13.0887 10.104 13.3316 9.95356 13.5258C9.80314 13.72 9.58633 13.8519 9.34469 13.8961L9.25649 13.9141H9.07289Z" fill="url(#paint2_linear)"/>
</g>
<defs>
<linearGradient id="paint0_linear" x1="0.347656" y1="0.144043" x2="18.3477" y2="18.144" gradientUnits="userSpaceOnUse">
<stop stop-color="#FFC200"/>
<stop offset="1" stop-color="#FF785E"/>
</linearGradient>
<linearGradient id="paint1_linear" x1="6.37109" y1="4.37048" x2="12.5835" y2="10.306" gradientUnits="userSpaceOnUse">
<stop stop-color="#FFC200"/>
<stop offset="1" stop-color="#FF785E"/>
</linearGradient>
<linearGradient id="paint2_linear" x1="8.16797" y1="11.918" x2="10.1641" y2="13.9124" gradientUnits="userSpaceOnUse">
<stop stop-color="#FFC200"/>
<stop offset="1" stop-color="#FF785E"/>
</linearGradient>
<clipPath id="clip0">
<rect x="0.347656" y="0.144043" width="18" height="18" fill="white"/>
</clipPath>
</defs>
</svg>
