<svg width="18" height="18" viewBox="0 0 18 18" fill="none" xmlns="http://www.w3.org/2000/svg">
<g clip-path="url(#clip0)">
<path d="M9.00013 0.000976562C4.03765 0.000976562 0 4.03856 0 9.0011C0 13.9636 4.03765 18.0006 9.00013 18.0006C13.9627 18.0006 18.0003 13.9636 18.0003 9.0011C18.0003 4.03856 13.9627 0.000976562 9.00013 0.000976562ZM9.00013 16.6741C4.7695 16.6741 1.32641 13.2317 1.32641 9.0011C1.32641 4.76984 4.7695 1.32739 9.00013 1.32739C13.2308 1.32739 16.6738 4.76978 16.6738 9.0011C16.6738 13.2317 13.2308 16.6741 9.00013 16.6741Z" fill="url(#paint0_linear)"/>
<path d="M9.9394 8.99952L12.5074 6.43148C12.7665 6.17239 12.7665 5.75271 12.5074 5.49363C12.2484 5.23455 11.8287 5.23455 11.5697 5.49363L9.00156 8.06168L6.43351 5.49363C6.17443 5.23455 5.75475 5.23455 5.49567 5.49363C5.23658 5.75271 5.23658 6.17239 5.49567 6.43148L8.06371 8.99952L5.49509 11.5682C5.23601 11.8273 5.23601 12.247 5.49509 12.5061C5.62464 12.6356 5.79431 12.7004 5.96405 12.7004C6.13372 12.7004 6.3034 12.6356 6.43294 12.5061L9.00162 9.93743L11.5704 12.5061C11.6998 12.6356 11.8695 12.7004 12.0393 12.7004C12.209 12.7004 12.3787 12.6356 12.5081 12.5061C12.7672 12.247 12.7672 11.8273 12.5081 11.5682L9.9394 8.99952Z" fill="url(#paint1_linear)"/>
</g>
<defs>
<linearGradient id="paint0_linear" x1="0" y1="0.000976562" x2="17.9996" y2="18.0013" gradientUnits="userSpaceOnUse">
<stop stop-color="#FFC200"/>
<stop offset="1" stop-color="#FF785E"/>
</linearGradient>
<linearGradient id="paint1_linear" x1="5.30078" y1="5.29932" x2="12.7019" y2="12.701" gradientUnits="userSpaceOnUse">
<stop stop-color="#FFC200"/>
<stop offset="1" stop-color="#FF785E"/>
</linearGradient>
<clipPath id="clip0">
<rect width="18" height="18" fill="white"/>
</clipPath>
</defs>
</svg>
