<svg width="21" height="21" viewBox="0 0 21 21" fill="none" xmlns="http://www.w3.org/2000/svg">
<path d="M19.1495 15.2359L20.7732 5.39219C20.8002 5.22848 20.7806 5.06037 20.7167 4.90748C20.6527 4.7546 20.5471 4.62325 20.412 4.52876C20.277 4.43427 20.1181 4.38054 19.954 4.37385C19.7898 4.36715 19.6272 4.40776 19.485 4.49094L14.2589 7.50969L11.1825 0.520628C11.1141 0.366619 11.0032 0.235865 10.863 0.144124C10.7228 0.0523826 10.5593 0.00357056 10.3923 0.00357056C10.2252 0.00357056 10.0618 0.0523826 9.92155 0.144124C9.78134 0.235865 9.67039 0.366619 9.60205 0.520628L6.52566 7.52063L1.29948 4.49094C1.15725 4.40883 0.994888 4.36917 0.831245 4.37656C0.667602 4.38394 0.509388 4.43807 0.37497 4.53266C0.240551 4.62726 0.135442 4.75843 0.0718424 4.91096C0.00824321 5.06349 -0.0112369 5.23111 0.0156636 5.39438L1.63937 15.2381C1.04688 15.5588 0.576679 16.0694 0.302725 16.6895C0.0287706 17.3097 -0.0333961 18.0043 0.126002 18.664C0.2854 19.3238 0.65732 19.9113 1.18327 20.3342C1.70922 20.757 2.35936 20.9913 3.03144 21H17.7531C18.4263 20.9931 19.078 20.7599 19.6055 20.3373C20.133 19.9146 20.5062 19.3265 20.6663 18.6658C20.8263 18.0051 20.7641 17.3093 20.4895 16.6883C20.2148 16.0672 19.7434 15.5563 19.1495 15.2359ZM6.49535 9.50907C6.60028 9.56946 6.71655 9.607 6.83669 9.6193C6.95683 9.63159 7.07819 9.61836 7.19297 9.58046C7.30775 9.54256 7.41342 9.48082 7.50319 9.3992C7.59296 9.31759 7.66484 9.21791 7.71422 9.10657L10.3923 3.02969L13.066 9.10657C13.1153 9.21851 13.1873 9.31875 13.2774 9.40077C13.3675 9.4828 13.4736 9.5448 13.589 9.58274C13.7043 9.62068 13.8262 9.63373 13.9468 9.62104C14.0674 9.60835 14.1841 9.5702 14.2892 9.50907L18.7641 6.92344L17.4522 14.875H3.33236L2.02041 6.92344L6.49535 9.50907ZM17.7531 19.25H3.03144C2.68693 19.25 2.35653 19.1117 2.11293 18.8656C1.86932 18.6194 1.73247 18.2856 1.73247 17.9375C1.73247 17.5894 1.86932 17.2556 2.11293 17.0094C2.35653 16.7633 2.68693 16.625 3.03144 16.625H17.7531C18.0976 16.625 18.428 16.7633 18.6716 17.0094C18.9152 17.2556 19.0521 17.5894 19.0521 17.9375C19.0521 18.2856 18.9152 18.6194 18.6716 18.8656C18.428 19.1117 18.0976 19.25 17.7531 19.25Z" fill="url(#paint0_linear)"/>
<defs>
<linearGradient id="paint0_linear" x1="0.00390625" y1="0.00357056" x2="20.9992" y2="20.7836" gradientUnits="userSpaceOnUse">
<stop stop-color="#FFC200"/>
<stop offset="1" stop-color="#FF785E"/>
</linearGradient>
</defs>
</svg>
