<svg width="18" height="18" viewBox="0 0 18 18" fill="none" xmlns="http://www.w3.org/2000/svg">
<path fill-rule="evenodd" clip-rule="evenodd" d="M13.9938 9.07905C13.9938 8.40642 13.4674 8.05032 12.7289 8.05032H10.6072C10.755 7.47012 10.8297 6.93898 10.8297 6.46767C10.8297 4.63654 10.3135 4.25195 9.88015 4.25195C9.5804 4.25195 9.37528 4.28329 9.08597 4.45422C9.00684 4.50106 8.95208 4.57956 8.93562 4.67009L8.62384 6.38442C8.28927 7.2859 7.41849 8.06203 6.71484 8.60647V13.1208C6.95731 13.1208 7.23237 13.2569 7.5239 13.4013C7.86796 13.5716 8.22343 13.7479 8.61403 13.7479H11.6211C12.2535 13.7479 12.7261 13.2465 12.7261 12.7983C12.7261 12.7119 12.7169 12.6331 12.702 12.5618C13.0933 12.4169 13.3607 12.0855 13.3607 11.6904C13.3607 11.5021 13.3275 11.3388 13.2588 11.1951C13.4981 11.026 13.7406 10.7497 13.7406 10.4243C13.7406 10.247 13.6586 10.0353 13.538 9.89095C13.8134 9.68457 13.9938 9.37975 13.9938 9.07905ZM13.3303 9.07905C13.3303 9.47977 12.9049 9.52725 12.8527 9.72192C12.7948 9.93621 13.1088 10.022 13.1088 10.398C13.1088 10.7937 12.6311 10.7889 12.5656 10.9931C12.4884 11.2353 12.7226 11.3014 12.7226 11.6904C12.7226 11.7148 12.7201 11.7382 12.7121 11.7613C12.6469 12.0867 12.163 12.0956 12.0797 12.2295C11.9908 12.3729 12.0924 12.4621 12.0924 12.7983C12.0924 12.9828 11.8847 13.1148 11.6211 13.1148H8.61403C8.37156 13.1148 8.0965 12.9784 7.80498 12.834C7.55618 12.7109 7.30106 12.5846 7.03137 12.5242V9.16324C7.81637 8.56215 8.83465 7.6689 9.22841 6.57497C9.23411 6.55851 9.23886 6.54142 9.24202 6.52433L9.5307 4.93534C9.62629 4.89483 9.71429 4.88501 9.88015 4.88501C9.9501 4.88501 10.1967 5.2639 10.1967 6.46767C10.1967 6.9279 10.1147 7.45968 9.95264 8.05032H9.87414C9.69941 8.05032 9.55761 8.19181 9.55761 8.36685C9.55761 8.54189 9.69941 8.68338 9.87414 8.68338H12.7289C13.0404 8.68338 13.3303 8.83184 13.3303 9.07905Z" fill="url(#paint0_linear)"/>
<path fill-rule="evenodd" clip-rule="evenodd" d="M6.39943 13.7478H4.50025C4.15112 13.7478 3.86719 13.4639 3.86719 13.1148V8.68335C3.86719 8.33422 4.15112 8.05029 4.50025 8.05029H6.39943C6.74857 8.05029 7.03249 8.33422 7.03249 8.68335V13.1148C7.03249 13.4639 6.74857 13.7478 6.39943 13.7478ZM4.50025 8.68335V13.1148H6.39848L6.39943 8.68335H4.50025Z" fill="url(#paint1_linear)"/>
<circle cx="8.92969" cy="9" r="8" stroke="url(#paint2_linear)"/>
<defs>
<linearGradient id="paint0_linear" x1="6.71484" y1="4.25195" x2="15.8847" y2="11.281" gradientUnits="userSpaceOnUse">
<stop stop-color="#FFC200"/>
<stop offset="1" stop-color="#FF785E"/>
</linearGradient>
<linearGradient id="paint1_linear" x1="3.86719" y1="8.05029" x2="8.70473" y2="10.7378" gradientUnits="userSpaceOnUse">
<stop stop-color="#FFC200"/>
<stop offset="1" stop-color="#FF785E"/>
</linearGradient>
<linearGradient id="paint2_linear" x1="0.429688" y1="0.5" x2="17.4297" y2="17.5" gradientUnits="userSpaceOnUse">
<stop stop-color="#FFC200"/>
<stop offset="1" stop-color="#FF785E"/>
</linearGradient>
</defs>
</svg>
