<svg width="1345" height="1579" viewBox="0 0 1345 1579" fill="none" xmlns="http://www.w3.org/2000/svg">
<path opacity="0.04" fill-rule="evenodd" clip-rule="evenodd" d="M679.385 2.11143L680.041 0.929688H835.785L835.789 0.929709L836.451 2.12172L907.089 128.523L832.501 262.448L832.036 262.448L683.794 262.448L683.329 262.448L608.741 128.523L679.385 2.11143ZM1296.92 262.448L1296.92 262.45H1148.21L1073.62 128.525L1144.64 1.4382L1144.93 0.929688H1300.67L1300.67 0.931066L1300.74 1.05345L1371.97 128.523L1297.38 262.448H1296.92ZM209.524 546.368L134.936 412.931H-13.7708L-68.6562 511.304V581.919L-13.7708 680.293H134.936L209.524 546.368ZM442.204 407.574L367.616 273.65H218.909L144.321 407.574L218.909 541.499H367.616L442.204 407.574ZM442.204 685.163L367.616 551.725H218.909L144.321 685.163L144.457 685.406L144.321 685.65L218.909 819.087H367.616L442.204 685.163ZM1370.3 407.574L1295.71 273.65H1147L1072.42 407.574L1147 541.499H1295.71L1370.3 407.574ZM1370.3 685.163L1295.71 551.725H1147L1072.42 685.163L1072.55 685.406L1072.42 685.65L1147 819.087H1295.71L1370.3 685.163ZM1603.82 269.009L1529.23 135.571H1380.52L1305.93 269.009L1306.07 269.253L1305.93 269.496L1380.52 402.934H1529.23L1603.82 269.009ZM674.409 268.779L599.821 134.855H451.115L376.526 268.779L451.115 402.704H599.821L674.409 268.779ZM674.409 546.368L599.821 412.931H451.115L376.526 546.368L451.115 680.293H599.821L674.409 546.368ZM907.082 407.574L832.494 273.649H683.787L609.199 407.574L683.787 541.499H832.494L907.082 407.574ZM907.082 685.163L832.494 551.726H683.787L609.199 685.163L609.335 685.407L609.199 685.65L683.787 819.575H832.494L907.082 685.65L906.947 685.407L907.082 685.163ZM1139.29 268.779L1064.7 134.855H915.994L841.406 268.779L915.994 402.704H1064.7L1139.29 268.779ZM209.524 825.418L134.936 691.494H-13.7708L-68.6562 789.867V860.482L-13.7708 959.342H134.936L209.524 825.418ZM442.204 964.213L367.616 830.288H218.909L144.321 964.213L218.909 1098.14H367.616L442.204 964.213ZM674.409 825.418L599.821 691.494H451.115L376.526 825.418L451.115 959.342H599.821L674.409 825.418ZM1137.43 548.102L1062.84 414.177H914.132L839.544 548.102L914.132 682.026H1062.84L1137.43 548.102ZM1137.43 825.691L1062.84 692.253H914.132L839.544 825.691L839.68 825.934L839.544 826.178L914.132 960.102H1062.84L1137.43 826.178L1137.29 825.934L1137.43 825.691Z" fill="url(#paint0_linear)"/>
<path opacity="0.04" fill-rule="evenodd" clip-rule="evenodd" d="M927.373 975.25L927.573 974.892H1083.32L1083.32 974.892L1083.51 975.23L1154.62 1102.49L1080.03 1236.41L1079.56 1236.41H930.858L856.27 1102.49L927.373 975.25ZM1544.44 1236.41L1544.44 1236.41H1395.74L1321.15 1102.49L1392.2 975.351L1392.45 974.892H1548.2L1548.2 974.894L1619.5 1102.49L1544.91 1236.41H1544.44ZM457.055 1520.33L382.467 1386.89H233.76L178.875 1485.27V1555.88L233.76 1654.25H382.467L457.055 1520.33ZM689.73 1381.54L615.142 1247.61H466.436L391.848 1381.54L466.436 1515.46H615.142L689.73 1381.54ZM689.73 1659.13L615.142 1525.69H466.436L391.848 1659.13L391.983 1659.37L391.848 1659.61L466.436 1793.05H615.142L689.73 1659.13ZM1617.83 1381.54L1543.24 1247.61H1394.53L1319.95 1381.54L1394.53 1515.46H1543.24L1617.83 1381.54ZM1617.83 1659.12L1543.24 1525.69H1394.53L1319.95 1659.12L1320.08 1659.37L1319.95 1659.61L1394.53 1793.05H1543.24L1617.83 1659.12ZM1851.35 1242.97L1776.76 1109.53H1628.05L1553.46 1242.97L1553.6 1243.22L1553.46 1243.46L1628.05 1376.9H1776.76L1851.35 1242.97ZM921.937 1242.74L847.349 1108.82H698.642L624.054 1242.74L698.642 1376.67H847.349L921.937 1242.74ZM921.937 1520.33L847.349 1386.89H698.642L624.054 1520.33L698.642 1654.25H847.349L921.937 1520.33ZM1154.61 1381.54L1080.03 1247.61H931.318L856.73 1381.54L931.318 1515.46H1080.03L1154.61 1381.54ZM1154.61 1659.13L1080.03 1525.69H931.318L856.73 1659.13L856.866 1659.37L856.73 1659.61L931.318 1793.54H1080.03L1154.61 1659.61L1154.48 1659.37L1154.61 1659.13ZM1386.82 1242.74L1312.23 1108.82H1163.53L1088.94 1242.74L1163.53 1376.67H1312.23L1386.82 1242.74ZM457.055 1799.38L382.467 1665.46H233.76L178.875 1763.83V1834.44L233.76 1933.3H382.467L457.055 1799.38ZM689.73 1938.17L615.142 1804.25H466.436L391.848 1938.17L466.436 2072.1H615.142L689.73 1938.17ZM921.937 1799.38L847.349 1665.46H698.642L624.054 1799.38L698.642 1933.3H847.349L921.937 1799.38ZM1384.95 1522.06L1310.37 1388.14H1161.66L1087.07 1522.06L1161.66 1655.99H1310.37L1384.95 1522.06ZM1384.95 1799.65L1310.37 1666.22H1161.66L1087.07 1799.65L1087.21 1799.9L1087.07 1800.14L1161.66 1934.06H1310.37L1384.95 1800.14L1384.82 1799.9L1384.95 1799.65Z" fill="url(#paint1_linear)"/>
<defs>
<linearGradient id="paint0_linear" x1="-68.6562" y1="0.929688" x2="937.801" y2="1535.07" gradientUnits="userSpaceOnUse">
<stop stop-color="#0B63F6"/>
<stop offset="1" stop-color="#003CC5"/>
</linearGradient>
<linearGradient id="paint1_linear" x1="178.875" y1="974.892" x2="1185.33" y2="2509.03" gradientUnits="userSpaceOnUse">
<stop stop-color="#0B63F6"/>
<stop offset="1" stop-color="#003CC5"/>
</linearGradient>
</defs>
</svg>
