<svg width="16" height="12" viewBox="0 0 16 12" fill="none" xmlns="http://www.w3.org/2000/svg">
<path d="M1.52602 0.400146H14.1615C14.8265 0.400146 15.3438 0.871154 15.3438 1.47674V10.1567C15.3438 10.7287 14.8265 11.2333 14.1615 11.2333H1.52602C0.860991 11.2333 0.34375 10.7287 0.34375 10.1567V1.47674C0.34375 0.871154 0.860991 0.400146 1.52602 0.400146ZM14.0137 10.3586L9.83882 5.85038L9.1738 6.42232C8.39794 7.09518 7.28956 7.09518 6.55065 6.42232L5.88562 5.85038L1.71075 10.3586H14.0137ZM1.2674 9.71937L5.33143 5.34573L1.2674 1.74588V9.71937ZM1.85853 1.24123L7.10483 5.91766C7.54818 6.32139 8.17626 6.32139 8.61961 5.91766L13.8659 1.24123H1.85853ZM14.4201 1.74588L10.393 5.34573L14.4201 9.71937V1.74588Z" fill="white" stroke="white" stroke-width="0.5"/>
</svg>
