<svg width="16" height="13" viewBox="0 0 16 13" fill="none" xmlns="http://www.w3.org/2000/svg">
<path d="M1.44984 0.733398H14.0853C14.7503 0.733398 15.2676 1.25064 15.2676 1.91566V11.4477C15.2676 12.0758 14.7503 12.6299 14.0853 12.6299H1.44984C0.784819 12.6299 0.267578 12.0758 0.267578 11.4477V1.91566C0.267578 1.25064 0.784819 0.733398 1.44984 0.733398ZM13.9375 11.6694L9.76265 6.71862L9.09763 7.3467C8.32176 8.08562 7.21339 8.08562 6.47447 7.3467L5.80945 6.71862L1.63457 11.6694H13.9375ZM1.19122 10.9674L5.25526 6.16443L1.19122 2.21123V10.9674ZM1.78236 1.65704L7.02866 6.79251C7.47201 7.23586 8.10009 7.23586 8.54344 6.79251L13.7897 1.65704H1.78236ZM14.3439 2.21123L10.3168 6.16443L14.3439 10.9674V2.21123Z" fill="#00226E"/>
</svg>
