<svg width="16" height="16" viewBox="0 0 16 16" fill="none" xmlns="http://www.w3.org/2000/svg">

<path fill="#00226E" class="st0" d="M11.5313 15.5098C11.531 15.5098 11.5307 15.5098 11.5303 15.5098C9.12513 15.5083 6.36685 14.1658 3.96271 11.8268C3.95863 11.8228 3.95455 11.8188 3.95053 11.8147C1.61152 9.41059 0.269147 6.65224 0.267578 4.24701C0.267578 3.36142 0.721164 2.43003 1.54482 1.62394C2.11154 1.06939 2.94818 0.509766 3.53993 0.509766C4.45168 0.509766 4.69432 0.940953 5.06156 1.59363C5.15104 1.75269 5.25244 1.93296 5.38364 2.151C5.4563 2.27128 5.55637 2.42382 5.66241 2.58526C6.33592 3.6114 6.76008 4.32896 6.52867 4.92906C6.34721 5.39607 5.86721 5.77932 5.40296 6.1499C5.23116 6.28712 4.98483 6.4837 4.87571 6.60254C4.95998 7.07106 5.57382 8.06294 6.64419 9.13326C7.71312 10.2022 8.7038 10.8158 9.17357 10.9014C9.29197 10.7922 9.48711 10.5477 9.62339 10.377C9.99547 9.91086 10.3802 9.42898 10.8486 9.24858C10.9567 9.20692 11.0751 9.18571 11.2003 9.18571C11.735 9.18571 12.3631 9.5709 13.1921 10.115C13.3535 10.2209 13.5061 10.3211 13.6273 10.3943C13.8445 10.525 14.0247 10.6264 14.1838 10.7159C14.8364 11.0832 15.2676 11.3258 15.2676 12.2375C15.2676 12.829 14.7076 13.6655 14.1527 14.2321C13.3466 15.0552 12.4157 15.509 11.5313 15.5098ZM4.84403 10.9334C6.98257 13.0117 9.48178 14.2533 11.5305 14.2549C12.7693 14.2534 13.9478 12.6465 14.0127 12.2263C14.0123 12.1405 14.0073 12.0954 14.0036 12.074C13.9396 12.0184 13.7432 11.9079 13.5684 11.8095C13.4101 11.7204 13.2131 11.6096 12.9794 11.469C12.8371 11.3831 12.675 11.2767 12.5035 11.1641C12.1784 10.9507 11.5248 10.5218 11.2465 10.45C11.0749 10.5701 10.7738 10.9472 10.604 11.1599C10.1736 11.6991 9.80184 12.1648 9.27761 12.1666C8.00036 12.1653 6.25987 10.5237 5.75678 10.0206C5.25369 9.51751 3.61209 7.77701 3.61077 6.50253C3.61077 5.9749 4.07847 5.60156 4.62003 5.16918C4.8316 5.00034 5.20638 4.70116 5.32716 4.53018C5.25494 4.25147 4.82652 3.59873 4.61331 3.27396C4.50068 3.10241 4.39433 2.94034 4.30894 2.79897C4.16776 2.56437 4.05689 2.36741 3.96785 2.2091C3.86947 2.03423 3.75891 1.83784 3.70338 1.77384C3.68198 1.7702 3.63687 1.76518 3.55097 1.76474C3.13045 1.8293 1.52242 3.00754 1.52242 4.24664C1.52386 6.29515 2.76547 8.79455 4.84403 10.9334Z"/>

</svg>