<svg width="16" height="14" viewBox="0 0 16 14" fill="none" xmlns="http://www.w3.org/2000/svg">
<path d="M11.6075 13.741C11.6071 13.741 11.6068 13.741 11.6065 13.741C9.2013 13.7396 6.44303 12.5172 4.03888 10.3872C4.0348 10.3836 4.03072 10.3799 4.02671 10.3762C1.68769 8.18701 0.345319 5.67521 0.34375 3.48498C0.34375 2.67855 0.797335 1.83041 1.62099 1.09637C2.18771 0.591392 3.02435 0.0817871 3.6161 0.0817871C4.52785 0.0817871 4.77049 0.474433 5.13774 1.06877C5.22721 1.21361 5.32861 1.37777 5.45981 1.57632C5.53247 1.68585 5.63254 1.82475 5.73858 1.97176C6.41209 2.90618 6.83625 3.5596 6.60485 4.10606C6.42339 4.53133 5.94339 4.88032 5.47913 5.21777C5.30734 5.34273 5.061 5.52174 4.95189 5.62996C5.03615 6.0566 5.64999 6.95982 6.72036 7.93447C7.78929 8.90785 8.77997 9.46665 9.24975 9.54453C9.36815 9.44511 9.56328 9.22245 9.69956 9.06704C10.0716 8.64257 10.4564 8.20375 10.9248 8.03948C11.0328 8.00155 11.1512 7.98223 11.2765 7.98223C11.8111 7.98223 12.4393 8.333 13.2683 8.82849C13.4297 8.92494 13.5822 9.01613 13.7035 9.0828C13.9206 9.20176 14.1009 9.29415 14.26 9.37563C14.9126 9.71011 15.3438 9.931 15.3438 10.7612C15.3438 11.2998 14.7838 12.0616 14.2288 12.5776C13.4228 13.3271 12.4919 13.7403 11.6075 13.741ZM4.9202 9.57373C7.05874 11.4663 9.55795 12.5968 11.6067 12.5983C12.8455 12.597 14.024 11.1337 14.0889 10.751C14.0885 10.6729 14.0834 10.6318 14.0798 10.6124C14.0158 10.5617 13.8194 10.4611 13.6445 10.3715C13.4863 10.2904 13.2893 10.1894 13.0556 10.0614C12.9133 9.98317 12.7512 9.88632 12.5796 9.78376C12.2545 9.5895 11.6009 9.19885 11.3227 9.13349C11.1511 9.2429 10.85 9.5863 10.6802 9.77993C10.2498 10.271 9.87801 10.695 9.35378 10.6967C8.07653 10.6955 6.33604 9.20062 5.83295 8.7425C5.32986 8.28437 3.68826 6.69945 3.68694 5.53888C3.68694 5.05842 4.15464 4.71845 4.6962 4.32472C4.90777 4.17097 5.28255 3.89854 5.40334 3.74284C5.33112 3.48904 4.90269 2.89464 4.68948 2.5989C4.57686 2.44269 4.4705 2.2951 4.38511 2.16637C4.24393 1.95274 4.13306 1.77338 4.04402 1.62923C3.94564 1.46999 3.83508 1.29115 3.77955 1.23287C3.75816 1.22955 3.71304 1.22498 3.62714 1.22458C3.20663 1.28338 1.59859 2.3563 1.59859 3.48464C1.60003 5.35005 2.84164 7.62604 4.9202 9.57373Z" fill="white"/>
</svg>
