<svg width="16" height="16" viewBox="0 0 16 16" fill="none" xmlns="http://www.w3.org/2000/svg">
<path d="M10.0086 12.2884C10.0084 12.2884 10.0082 12.2884 10.0081 12.2884C8.61072 12.2875 7.00828 11.5069 5.61156 10.1466C5.60919 10.1443 5.60682 10.142 5.60449 10.1396C4.24562 8.7415 3.46576 7.13741 3.46484 5.73867C3.46484 5.22366 3.72836 4.68202 4.20687 4.21324C4.53611 3.89075 5.02216 3.56531 5.36595 3.56531C5.89564 3.56531 6.0366 3.81606 6.24996 4.19562C6.30194 4.28812 6.36084 4.39295 6.43707 4.51975C6.47928 4.5897 6.53742 4.67841 6.59902 4.77229C6.9903 5.36904 7.23672 5.78632 7.10229 6.13531C6.99687 6.40689 6.718 6.62977 6.44829 6.84527C6.34849 6.92508 6.20537 7.0394 6.14198 7.10851C6.19094 7.38097 6.54755 7.95779 7.1694 8.58022C7.7904 9.20185 8.36595 9.55871 8.63887 9.60845C8.70765 9.54496 8.82102 9.40276 8.90019 9.30351C9.11636 9.03243 9.33988 8.75219 9.612 8.64729C9.67477 8.62306 9.74356 8.61073 9.81632 8.61073C10.1269 8.61073 10.4919 8.83473 10.9735 9.15117C11.0673 9.21276 11.1559 9.271 11.2263 9.31358C11.3525 9.38955 11.4572 9.44855 11.5496 9.50059C11.9287 9.71419 12.1792 9.85526 12.1792 10.3854C12.1792 10.7294 11.8539 11.2159 11.5315 11.5454C11.0632 12.0241 10.5224 12.288 10.0086 12.2884ZM6.12357 9.62709C7.36598 10.8357 8.81792 11.5577 10.0082 11.5587C10.7278 11.5578 11.4125 10.6233 11.4502 10.379C11.45 10.329 11.4471 10.3028 11.4449 10.2904C11.4078 10.2581 11.2937 10.1938 11.1921 10.1366C11.1001 10.0848 10.9857 10.0203 10.8499 9.93853C10.7672 9.88857 10.6731 9.82672 10.5734 9.76123C10.3845 9.63716 10.0048 9.38769 9.84314 9.34594C9.74345 9.41582 9.56855 9.63512 9.46991 9.75878C9.21984 10.0724 9.00386 10.3432 8.6993 10.3442C7.95728 10.3435 6.94612 9.38882 6.65385 9.09625C6.36157 8.80368 5.40787 7.79151 5.4071 7.05034C5.4071 6.74351 5.67882 6.5264 5.99344 6.27495C6.11636 6.17676 6.33409 6.00278 6.40426 5.90335C6.3623 5.74126 6.1134 5.36167 5.98954 5.1728C5.92411 5.07304 5.86232 4.97879 5.81271 4.89658C5.73069 4.76014 5.66628 4.6456 5.61455 4.55354C5.5574 4.45185 5.49317 4.33764 5.46091 4.30042C5.44848 4.2983 5.42227 4.29538 5.37236 4.29513C5.12806 4.33267 4.19386 5.01787 4.19386 5.73845C4.19469 6.92975 4.91602 8.38325 6.12357 9.62709Z" fill="#00226E"/>
<path d="M0.632191 15.6216C0.540221 15.6216 0.449637 15.5867 0.38045 15.5207C0.275212 15.4201 0.23978 15.2666 0.29023 15.1301L1.49254 11.877C0.612069 10.4975 0.199755 8.85676 0.329708 7.23552C0.466697 5.5267 1.2034 3.92373 2.40403 2.72189C3.75708 1.36749 5.56873 0.621582 7.50526 0.621582C9.51135 0.621582 11.4071 1.41329 12.8432 2.85088C15.7569 5.76745 15.8147 10.4551 12.9721 13.3006C11.6193 14.6548 9.80774 15.4006 7.87157 15.4006C7.87146 15.4006 7.8715 15.4006 7.87139 15.4006C6.4679 15.4006 5.10108 15.0079 3.90569 14.2632L0.774465 15.5926C0.728535 15.6121 0.680162 15.6216 0.632191 15.6216ZM3.94029 13.4872C4.01057 13.4872 4.08041 13.5076 4.14085 13.5474C5.25549 14.2823 6.54547 14.6708 7.87139 14.6708C9.61294 14.6709 11.2413 14.001 12.4566 12.7845C15.0149 10.2236 14.9571 5.9989 12.3277 3.36691C11.0293 2.06713 9.31658 1.35136 7.50526 1.35136C5.76346 1.35136 4.13491 2.02134 2.91958 3.23792C0.71399 5.44573 0.411544 8.97371 2.20045 11.6266C2.26614 11.724 2.28094 11.8472 2.24018 11.9573L1.2669 14.5908L3.79801 13.5162C3.84365 13.4968 3.8921 13.4872 3.94029 13.4872Z" fill="#00226E"/>
</svg>
