<svg width="16" height="15" viewBox="0 0 16 15" fill="none" xmlns="http://www.w3.org/2000/svg">
<path d="M10.0867 11.365C10.0866 11.365 10.0864 11.365 10.0862 11.365C8.68885 11.3642 7.0864 10.6533 5.68969 9.41468C5.68732 9.41259 5.68495 9.41043 5.68262 9.40827C4.32374 8.13515 3.54388 6.67444 3.54297 5.40073C3.54297 4.93176 3.80648 4.43853 4.285 4.01165C4.61423 3.71799 5.10029 3.42163 5.44407 3.42163C5.97377 3.42163 6.11473 3.64997 6.32808 3.9956C6.38006 4.07983 6.43897 4.1753 6.51519 4.29076C6.55741 4.35446 6.61555 4.43524 6.67715 4.52073C7.06843 5.06413 7.31485 5.44412 7.18042 5.76191C7.07499 6.00922 6.79613 6.21218 6.52642 6.40842C6.42661 6.48109 6.2835 6.58519 6.22011 6.64812C6.26907 6.89623 6.62568 7.42149 7.24752 7.98829C7.86853 8.55435 8.44408 8.87932 8.717 8.92461C8.78578 8.86679 8.89915 8.7373 8.97832 8.64693C9.19449 8.40008 9.41801 8.14489 9.69013 8.04936C9.7529 8.0273 9.82169 8.01607 9.89445 8.01607C10.2051 8.01607 10.57 8.22005 11.0516 8.5082C11.1454 8.56429 11.234 8.61732 11.3044 8.6561C11.4306 8.72528 11.5353 8.779 11.6277 8.82639C12.0069 9.0209 12.2574 9.14936 12.2574 9.63215C12.2574 9.94539 11.9321 10.3884 11.6096 10.6885C11.1414 11.1243 10.6005 11.3646 10.0867 11.365ZM6.2017 8.94159C7.44411 10.0422 8.89605 10.6997 10.0863 10.7005C10.806 10.6997 11.4906 9.84876 11.5284 9.62624C11.5281 9.58078 11.5252 9.55693 11.5231 9.5456C11.4859 9.51616 11.3718 9.45764 11.2702 9.40554C11.1783 9.35836 11.0638 9.29965 10.928 9.22518C10.8453 9.1797 10.7512 9.12337 10.6515 9.06373C10.4627 8.95076 10.0829 8.72358 9.92128 8.68557C9.82158 8.7492 9.64668 8.9489 9.54804 9.0615C9.29798 9.34706 9.082 9.59368 8.77743 9.59464C8.03541 9.59394 7.02425 8.72461 6.73198 8.45819C6.4397 8.19177 5.48599 7.27008 5.48523 6.59516C5.48523 6.31575 5.75695 6.11804 6.07157 5.88907C6.19448 5.79966 6.41222 5.64123 6.48239 5.55068C6.44043 5.40309 6.19153 5.05742 6.06767 4.88544C6.00223 4.79459 5.94045 4.70877 5.89084 4.6339C5.80882 4.50967 5.74441 4.40536 5.69268 4.32153C5.63552 4.22893 5.57129 4.12492 5.53903 4.09103C5.5266 4.08911 5.50039 4.08645 5.45049 4.08621C5.20619 4.12041 4.27198 4.74435 4.27198 5.40053C4.27282 6.48534 4.99414 7.80893 6.2017 8.94159Z" fill="white" stroke="white" stroke-width="0.5"/>
<path d="M0.708363 14.4002C0.616393 14.4002 0.525809 14.3685 0.456622 14.3083C0.351384 14.2167 0.315952 14.077 0.366402 13.9526L1.56871 10.9903C0.688241 9.73409 0.275927 8.24005 0.40588 6.76372C0.542869 5.20764 1.27957 3.74796 2.48021 2.65354C3.83325 1.4202 5.6449 0.740967 7.58144 0.740967C9.58753 0.740967 11.4832 1.4619 12.9194 2.771C15.833 5.42688 15.8909 9.69555 13.0483 12.2867C11.6955 13.5198 9.88392 14.199 7.94775 14.199C7.94764 14.199 7.94767 14.199 7.94757 14.199C6.54407 14.199 5.17725 13.8414 3.98187 13.1632L0.850637 14.3738C0.804707 14.3916 0.756334 14.4002 0.708363 14.4002ZM4.01646 12.4566C4.08674 12.4566 4.15658 12.4751 4.21702 12.5114C5.33166 13.1806 6.62164 13.5344 7.94757 13.5344C9.68912 13.5345 11.3175 12.9245 12.5328 11.8167C15.0911 9.48475 15.0333 5.63764 12.4039 3.2409C11.1054 2.05731 9.39276 1.40552 7.58144 1.40552C5.83963 1.40552 4.21108 2.01561 2.99575 3.12345C0.790162 5.13391 0.487716 8.34654 2.27662 10.7623C2.34231 10.851 2.35711 10.9631 2.31635 11.0635L1.34307 13.4616L3.87419 12.483C3.91982 12.4653 3.96827 12.4566 4.01646 12.4566Z" fill="white" stroke="white" stroke-width="0.5"/>
</svg>
